<svg id="Capa_1" enable-background="new 0 0 512 512" height="512" viewBox="0 0 512 512" width="512" xmlns="http://www.w3.org/2000/svg" xmlns:xlink="http://www.w3.org/1999/xlink"><linearGradient id="SVGID_1_" gradientTransform="matrix(1 0 0 -1 -561.6 -6586.99)" gradientUnits="userSpaceOnUse" x1="863.508" x2="755.497" y1="-6532.016" y2="-7237.088"><stop offset="0" stop-color="#fff3ee" stop-opacity="0"/><stop offset=".2938" stop-color="#ffeade" stop-opacity=".373"/><stop offset=".7874" stop-color="#ffd6bb"/></linearGradient><linearGradient id="SVGID_2_" gradientUnits="userSpaceOnUse" x1="256" x2="256" y1="340.022" y2="100.078"><stop offset="0" stop-color="#ff4d4d" stop-opacity=".4"/><stop offset="1" stop-color="#ff4d4d" stop-opacity="0"/></linearGradient><g><g><path d="m338.919 70.183c-1.369 0-2.734.012-4.096.037-33.932.616-66.631-11.72-93.007-33.075-23.389-18.936-53.236-30.21-85.724-29.998-74.135.484-135.234 63.074-134.007 137.2.33 19.96 4.996 38.864 13.096 55.813 13.801 28.879 10.825 63.235-8.352 88.861-7.92 10.584-14.402 22.515-19.061 35.605-24.826 69.757 11.848 147.296 81.551 172.272 70.982 25.434 148.823-12.162 173.19-83.256 1.805-5.266 3.265-10.567 4.393-15.878 7.162-33.729 36.586-57.876 71.067-57.732.317.001.634.002.951.002 95.59 0 173.08-60.408 173.08-134.925s-77.492-134.926-173.081-134.926z" fill="url(#SVGID_1_)"/><g><path d="m363.666 381.4h-3v-3c0-2.761-2.238-5-5-5s-5 2.239-5 5v3h-3c-2.762 0-5 2.239-5 5s2.238 5 5 5h3v3c0 2.761 2.238 5 5 5s5-2.239 5-5v-3h3c2.762 0 5-2.239 5-5s-2.238-5-5-5z" fill="#8383ff"/><path d="m408.332 418.532h-3v-3c0-2.761-2.238-5-5-5s-5 2.239-5 5v3h-3c-2.762 0-5 2.239-5 5s2.238 5 5 5h3v3c0 2.761 2.238 5 5 5s5-2.239 5-5v-3h3c2.762 0 5-2.239 5-5s-2.238-5-5-5z" fill="#ff9d33"/><path d="m263.999 82.496c-1.279 0-2.56-.488-3.535-1.464l-4.465-4.465-4.464 4.464c-1.953 1.952-5.118 1.952-7.071 0-1.953-1.953-1.953-5.119 0-7.071l8-8c1.953-1.952 5.12-1.952 7.071 0l8 8c1.953 1.953 1.953 5.119 0 7.071-.976.976-2.257 1.465-3.536 1.465z" fill="#ff6c6c"/><path d="m152.999 405.4c-1.28 0-2.559-.488-3.536-1.464l-4.464-4.464-4.464 4.464c-1.953 1.952-5.118 1.952-7.071 0-1.953-1.953-1.953-5.119 0-7.071l8-8c1.953-1.952 5.118-1.952 7.071 0l8 8c1.953 1.953 1.953 5.119 0 7.071-.977.976-2.256 1.464-3.536 1.464z" fill="#ff6c6c"/><path d="m305.666 54.406c-1.279 0-2.56-.488-3.535-1.464l-4.465-4.464-4.465 4.464c-1.951 1.952-5.119 1.952-7.07 0-1.953-1.953-1.953-5.119 0-7.071l8-8c1.951-1.952 5.119-1.952 7.07 0l8 8c1.953 1.953 1.953 5.119 0 7.071-.975.975-2.256 1.464-3.535 1.464z" fill="#8383ff"/><g><g><path d="m217.319 331.471h77.36v99.06h-77.36z" fill="#ebebff"/><path d="m217.319 331.471h77.36v46.05h-77.36z" fill="#d9d9ff"/><path d="m315.562 361.201h-119.126c-5.523 0-10-4.477-10-10v-22.648h139.125v22.648c.001 5.523-4.477 10-9.999 10z" fill="#ff6c6c"/><g><path d="m437.043 340.022h-362.088c-8.284 0-15-6.716-15-15v-209.944c0-8.284 6.716-15 15-15h362.088c8.284 0 15 6.716 15 15v209.944c0 8.285-6.716 15-15 15z" fill="#8383ff"/><g><path d="m452.039 115.076v184.55h-392.08v-184.55c0-8.28 6.71-15 15-15h362.08c8.29 0 15 6.72 15 15z" fill="#ffc599"/></g><path d="m59.959 163.216h392.08v83.67h-392.08z" fill="#ff9d33"/></g><path d="m334.032 437.594h-156.066c-5.631 0-10.196-4.565-10.196-10.196s4.565-10.196 10.196-10.196h156.065c5.631 0 10.196 4.565 10.196 10.196.001 5.631-4.564 10.196-10.195 10.196z" fill="#4d4dff"/></g></g><path d="m437.043 340.022h-362.088c-8.284 0-15-6.716-15-15v-209.944c0-8.284 6.716-15 15-15h362.088c8.284 0 15 6.716 15 15v209.944c0 8.285-6.716 15-15 15z" fill="url(#SVGID_2_)"/><g><path d="m474.937 226.69h-437.876c-2.761 0-5-2.239-5-5v-73.675c0-2.761 2.239-5 5-5h437.875c2.761 0 5 2.239 5 5v73.675c.001 2.761-2.238 5-4.999 5z" fill="#ebebff"/><path d="m474.937 226.69h-78.675v-83.675h78.675c2.761 0 5 2.239 5 5v73.675c0 2.761-2.239 5-5 5z" fill="#8383ff"/></g><g><path d="m431.023 167.473c-5.512 5.512-6.511 13.849-3.009 20.392l-9.949 9.95c-1.952 1.953-1.952 5.119.001 7.071.977.976 2.256 1.464 3.535 1.464s2.56-.488 3.536-1.464l9.94-9.941c2.484 1.336 5.274 2.047 8.174 2.047 4.619 0 8.961-1.799 12.227-5.065h.001c3.266-3.266 5.064-7.608 5.064-12.227s-1.799-8.961-5.064-12.227c-3.266-3.267-7.608-5.065-12.228-5.065s-8.961 1.799-12.228 5.065zm19.521 12.227c0 1.948-.759 3.779-2.136 5.156h-.001c-1.377 1.377-3.208 2.136-5.155 2.136-1.948 0-3.779-.759-5.156-2.136-2.844-2.843-2.844-7.47-.001-10.313 1.378-1.377 3.209-2.136 5.157-2.136 1.947 0 3.778.758 5.156 2.136 1.377 1.378 2.136 3.209 2.136 5.157z" fill="#2626bc"/></g><g fill="#b3b3ff"><path d="m79.116 206.646h-1.641c-2.761 0-5-2.239-5-5v-31.762c0-2.761 2.239-5 5-5h1.641c2.761 0 5 2.239 5 5v31.762c0 2.761-2.238 5-5 5z"/><path d="m102.319 206.646h-1.641c-2.761 0-5-2.239-5-5v-31.762c0-2.761 2.239-5 5-5h1.641c2.761 0 5 2.239 5 5v31.762c0 2.761-2.238 5-5 5z"/><path d="m125.523 206.646h-1.641c-2.761 0-5-2.239-5-5v-31.762c0-2.761 2.239-5 5-5h1.641c2.761 0 5 2.239 5 5v31.762c0 2.761-2.239 5-5 5z"/><path d="m148.726 206.646h-1.641c-2.761 0-5-2.239-5-5v-31.762c0-2.761 2.239-5 5-5h1.641c2.761 0 5 2.239 5 5v31.762c0 2.761-2.239 5-5 5z"/><path d="m171.929 206.646h-1.641c-2.761 0-5-2.239-5-5v-31.762c0-2.761 2.239-5 5-5h1.641c2.761 0 5 2.239 5 5v31.762c0 2.761-2.238 5-5 5z"/><path d="m363.133 206.646h-169.641c-2.761 0-5-2.239-5-5v-31.762c0-2.761 2.239-5 5-5h169.641c2.761 0 5 2.239 5 5v31.762c0 2.761-2.239 5-5 5z"/></g><g><g><g><path d="m272.628 279.064h-175.519c-2.762 0-5-2.239-5-5s2.238-5 5-5h175.52c2.762 0 5 2.239 5 5s-2.239 5-5.001 5z" fill="#fff"/></g></g><g fill="#fff"><circle cx="398.639" cy="274.064" r="5"/><circle cx="414.889" cy="274.064" r="5"/></g></g></g></g></g></svg>