<svg xmlns="http://www.w3.org/2000/svg" xmlns:xlink="http://www.w3.org/1999/xlink" viewBox="0 0 2475 1650"><defs><style>.cls-1,.cls-15,.cls-22,.cls-24,.cls-5,.cls-8,.cls-80{fill:#fff;}.cls-2{fill:url(#linear-gradient);}.cls-3{fill:#91b3fa;}.cls-21,.cls-4{fill:#bdd0fb;}.cls-5{opacity:0.47;}.cls-6{fill:url(#linear-gradient-2);}.cls-7{fill:url(#linear-gradient-3);}.cls-8{opacity:0.37;}.cls-9{fill:url(#linear-gradient-4);}.cls-10{fill:url(#linear-gradient-5);}.cls-11{fill:url(#linear-gradient-6);}.cls-12{fill:url(#linear-gradient-7);}.cls-13{fill:url(#linear-gradient-8);}.cls-14{fill:url(#linear-gradient-9);}.cls-15,.cls-21,.cls-39,.cls-40,.cls-41,.cls-42,.cls-43,.cls-55{opacity:0.43;}.cls-16{fill:url(#linear-gradient-10);}.cls-17,.cls-37,.cls-53,.cls-64,.cls-73{opacity:0.2;}.cls-17{fill:url(#linear-gradient-11);}.cls-18{fill:url(#linear-gradient-12);}.cls-19{fill:url(#linear-gradient-13);}.cls-20{fill:url(#linear-gradient-14);}.cls-22{opacity:0.57;}.cls-23{fill:url(#linear-gradient-15);}.cls-24{opacity:0.83;}.cls-25{fill:url(#linear-gradient-16);}.cls-26{fill:url(#linear-gradient-17);}.cls-27{fill:url(#linear-gradient-18);}.cls-28{fill:url(#linear-gradient-19);}.cls-29{fill:url(#linear-gradient-20);}.cls-30{fill:url(#linear-gradient-21);}.cls-31{fill:#7d97f4;}.cls-32{fill:url(#linear-gradient-22);}.cls-33{fill:url(#linear-gradient-23);}.cls-34{fill:url(#linear-gradient-24);}.cls-35{fill:url(#linear-gradient-25);}.cls-36{fill:url(#linear-gradient-26);}.cls-37{fill:url(#linear-gradient-27);}.cls-38{fill:url(#linear-gradient-28);}.cls-39{fill:url(#linear-gradient-29);}.cls-40{fill:url(#linear-gradient-30);}.cls-41{fill:url(#linear-gradient-31);}.cls-42{fill:url(#linear-gradient-32);}.cls-43{fill:url(#linear-gradient-33);}.cls-44{fill:url(#linear-gradient-34);}.cls-45{fill:url(#linear-gradient-35);}.cls-46{fill:url(#linear-gradient-36);}.cls-47{fill:url(#linear-gradient-37);}.cls-48{fill:url(#linear-gradient-38);}.cls-49{fill:url(#linear-gradient-39);}.cls-50{fill:url(#linear-gradient-40);}.cls-51{fill:url(#linear-gradient-41);}.cls-52{fill:url(#linear-gradient-42);}.cls-53{fill:url(#linear-gradient-43);}.cls-54{fill:url(#linear-gradient-44);}.cls-56{fill:url(#linear-gradient-45);}.cls-57{fill:url(#linear-gradient-46);}.cls-58{fill:url(#linear-gradient-47);}.cls-59{fill:url(#linear-gradient-48);}.cls-60{fill:url(#linear-gradient-49);}.cls-61{fill:url(#linear-gradient-50);}.cls-62{fill:url(#linear-gradient-51);}.cls-63{fill:url(#linear-gradient-52);}.cls-64{fill:url(#linear-gradient-53);}.cls-65{fill:url(#linear-gradient-54);}.cls-66{fill:url(#linear-gradient-55);}.cls-67{fill:url(#linear-gradient-56);}.cls-68{fill:url(#linear-gradient-57);}.cls-69{fill:url(#linear-gradient-58);}.cls-70{fill:url(#linear-gradient-59);}.cls-71{fill:url(#linear-gradient-60);}.cls-72{fill:url(#linear-gradient-61);}.cls-73{fill:url(#linear-gradient-62);}.cls-74{fill:url(#linear-gradient-63);}.cls-75{fill:url(#linear-gradient-64);}.cls-76{fill:url(#linear-gradient-65);}.cls-77{fill:url(#linear-gradient-66);}.cls-78{fill:url(#linear-gradient-67);}.cls-79{fill:url(#linear-gradient-68);}.cls-80{opacity:0.12;}.cls-81{fill:url(#linear-gradient-69);}</style><linearGradient id="linear-gradient" x1="245.09" y1="823.8" x2="2319.21" y2="823.8" gradientUnits="userSpaceOnUse"><stop offset="0" stop-color="#dae3fe"/><stop offset="1" stop-color="#e9effd"/></linearGradient><linearGradient id="linear-gradient-2" x1="1224.55" y1="1465.6" x2="1259.88" y2="393.69" gradientUnits="userSpaceOnUse"><stop offset="0" stop-color="#09005d"/><stop offset="1" stop-color="#1a0f91"/></linearGradient><linearGradient id="linear-gradient-3" x1="1805.68" y1="350.16" x2="130.04" y2="2264.04" gradientUnits="userSpaceOnUse"><stop offset="0" stop-color="#fe7062"/><stop offset="1" stop-color="#ff928e"/></linearGradient><linearGradient id="linear-gradient-4" x1="1258.78" y1="659.12" x2="1258.78" y2="1373.73" xlink:href="#linear-gradient-2"/><linearGradient id="linear-gradient-5" x1="835.09" y1="6.68" x2="89.53" y2="1773.6" gradientUnits="userSpaceOnUse"><stop offset="0" stop-color="#4042e2"/><stop offset="1" stop-color="#4f52ff"/></linearGradient><linearGradient id="linear-gradient-6" x1="374.2" y1="271.24" x2="720.23" y2="271.24" xlink:href="#linear-gradient"/><linearGradient id="linear-gradient-7" x1="737.29" y1="271.74" x2="766.81" y2="271.74" xlink:href="#linear-gradient"/><linearGradient id="linear-gradient-8" x1="787.24" y1="271.74" x2="816.77" y2="271.74" xlink:href="#linear-gradient"/><linearGradient id="linear-gradient-9" x1="837.2" y1="271.74" x2="866.72" y2="271.74" xlink:href="#linear-gradient"/><linearGradient id="linear-gradient-10" x1="432.13" y1="172.24" x2="338.4" y2="400.46" xlink:href="#linear-gradient-5"/><linearGradient id="linear-gradient-11" x1="1901.02" y1="1051.38" x2="1946.97" y2="1051.38" gradientTransform="translate(-1516.72 -779.54)" gradientUnits="userSpaceOnUse"><stop offset="0" stop-color="#53d8ff"/><stop offset="1" stop-color="#3840f7"/></linearGradient><linearGradient id="linear-gradient-12" x1="445.87" y1="177.88" x2="352.13" y2="406.11" xlink:href="#linear-gradient-5"/><linearGradient id="linear-gradient-13" x1="397.67" y1="375.05" x2="841.82" y2="375.05" xlink:href="#linear-gradient-5"/><linearGradient id="linear-gradient-14" x1="459.51" y1="340.05" x2="773.99" y2="340.05" xlink:href="#linear-gradient-5"/><linearGradient id="linear-gradient-15" x1="2080.55" y1="179.38" x2="1605.97" y2="809.45" gradientTransform="translate(854.82 -1217.39) rotate(45)" xlink:href="#linear-gradient-3"/><linearGradient id="linear-gradient-16" x1="2080.55" y1="179.38" x2="1605.97" y2="809.45" gradientTransform="translate(854.82 -1217.39) rotate(45)" xlink:href="#linear-gradient-3"/><linearGradient id="linear-gradient-17" x1="1790.51" y1="564.45" x2="1315.94" y2="1194.53" gradientTransform="translate(1868.01 -1520.18) rotate(76.57)" gradientUnits="userSpaceOnUse"><stop offset="0" stop-color="#e1473d"/><stop offset="1" stop-color="#e9605a"/></linearGradient><linearGradient id="linear-gradient-18" x1="-925.76" y1="3804.76" x2="-1001.07" y2="4110.68" gradientTransform="translate(3068.61 -3833.36)" xlink:href="#linear-gradient-2"/><linearGradient id="linear-gradient-19" x1="1895.91" y1="394.26" x2="1967.52" y2="394.26" xlink:href="#linear-gradient-5"/><linearGradient id="linear-gradient-20" x1="-1009.83" y1="4207.99" x2="-1041.21" y2="4544.53" gradientTransform="translate(-1518.93 2437.87) rotate(-135)" xlink:href="#linear-gradient-5"/><linearGradient id="linear-gradient-21" x1="436.78" y1="4207.99" x2="405.41" y2="4544.53" gradientTransform="matrix(0.71, 0.71, 0.71, -0.71, -1134.81, 2822)" xlink:href="#linear-gradient-5"/><linearGradient id="linear-gradient-22" x1="1088.35" y1="137.18" x2="342.79" y2="1904.09" xlink:href="#linear-gradient-5"/><linearGradient id="linear-gradient-23" x1="990.55" y1="402.24" x2="1020.07" y2="402.24" xlink:href="#linear-gradient"/><linearGradient id="linear-gradient-24" x1="1040.51" y1="402.24" x2="1070.03" y2="402.24" xlink:href="#linear-gradient"/><linearGradient id="linear-gradient-25" x1="1090.47" y1="402.24" x2="1119.99" y2="402.24" xlink:href="#linear-gradient"/><linearGradient id="linear-gradient-26" x1="685.4" y1="302.74" x2="591.66" y2="530.96" xlink:href="#linear-gradient-5"/><linearGradient id="linear-gradient-27" x1="2073.38" y1="1278.23" x2="2119.34" y2="1278.23" gradientTransform="translate(-1435.8 -875.93)" xlink:href="#linear-gradient-11"/><linearGradient id="linear-gradient-28" x1="699.13" y1="308.38" x2="605.39" y2="536.6" xlink:href="#linear-gradient-5"/><linearGradient id="linear-gradient-29" x1="657.24" y1="753.6" x2="958.85" y2="753.6" xlink:href="#linear-gradient"/><linearGradient id="linear-gradient-30" x1="656.98" y1="787.43" x2="958.59" y2="787.43" xlink:href="#linear-gradient"/><linearGradient id="linear-gradient-31" x1="657.81" y1="823.4" x2="959.41" y2="823.4" xlink:href="#linear-gradient"/><linearGradient id="linear-gradient-32" x1="657.54" y1="857.23" x2="959.15" y2="857.23" xlink:href="#linear-gradient"/><linearGradient id="linear-gradient-33" x1="657.1" y1="888.16" x2="958.71" y2="888.16" xlink:href="#linear-gradient"/><linearGradient id="linear-gradient-34" x1="655.68" y1="707.21" x2="955.54" y2="707.21" xlink:href="#linear-gradient-5"/><linearGradient id="linear-gradient-35" x1="650.85" y1="564.75" x2="955.54" y2="564.75" xlink:href="#linear-gradient-5"/><linearGradient id="linear-gradient-36" x1="691.83" y1="576.05" x2="897.46" y2="576.05" xlink:href="#linear-gradient"/><linearGradient id="linear-gradient-37" x1="859.85" y1="504.27" x2="914.56" y2="504.27" gradientTransform="translate(260.51 -301.13) rotate(22.5)" xlink:href="#linear-gradient"/><linearGradient id="linear-gradient-38" x1="1333.88" y1="333.41" x2="588.32" y2="2100.33" xlink:href="#linear-gradient-5"/><linearGradient id="linear-gradient-39" x1="1236.08" y1="598.47" x2="1265.6" y2="598.47" xlink:href="#linear-gradient"/><linearGradient id="linear-gradient-40" x1="1286.04" y1="598.47" x2="1315.56" y2="598.47" xlink:href="#linear-gradient"/><linearGradient id="linear-gradient-41" x1="1336" y1="598.47" x2="1365.52" y2="598.47" xlink:href="#linear-gradient"/><linearGradient id="linear-gradient-42" x1="930.93" y1="498.97" x2="837.19" y2="727.19" xlink:href="#linear-gradient-5"/><linearGradient id="linear-gradient-43" x1="2210.46" y1="1561.07" x2="2256.41" y2="1561.07" gradientTransform="translate(-1781.98 151.69) rotate(-25.51)" xlink:href="#linear-gradient-11"/><linearGradient id="linear-gradient-44" x1="944.66" y1="504.61" x2="850.92" y2="732.83" xlink:href="#linear-gradient-5"/><linearGradient id="linear-gradient-45" x1="1664.02" y1="483.02" x2="910.05" y2="2269.87" xlink:href="#linear-gradient-5"/><linearGradient id="linear-gradient-46" x1="1221.62" y1="933.05" x2="1526.31" y2="933.05" xlink:href="#linear-gradient-5"/><linearGradient id="linear-gradient-47" x1="1262.61" y1="944.34" x2="1468.23" y2="944.34" xlink:href="#linear-gradient"/><linearGradient id="linear-gradient-48" x1="1430.62" y1="872.56" x2="1485.33" y2="872.56" gradientTransform="translate(444.9 -491.52) rotate(22.5)" xlink:href="#linear-gradient"/><linearGradient id="linear-gradient-49" x1="1563.77" y1="749.27" x2="1593.3" y2="749.27" xlink:href="#linear-gradient"/><linearGradient id="linear-gradient-50" x1="1613.73" y1="749.27" x2="1643.25" y2="749.27" xlink:href="#linear-gradient"/><linearGradient id="linear-gradient-51" x1="1663.69" y1="749.27" x2="1693.21" y2="749.27" xlink:href="#linear-gradient"/><linearGradient id="linear-gradient-52" x1="1258.62" y1="649.76" x2="1164.88" y2="877.99" xlink:href="#linear-gradient-5"/><linearGradient id="linear-gradient-53" x1="2441.25" y1="1838.31" x2="2487.2" y2="1838.31" gradientTransform="translate(-1230.42 -1089)" xlink:href="#linear-gradient-11"/><linearGradient id="linear-gradient-54" x1="1272.35" y1="655.41" x2="1178.62" y2="883.63" xlink:href="#linear-gradient-5"/><linearGradient id="linear-gradient-55" x1="2037.15" y1="669.58" x2="1283.18" y2="2456.44" xlink:href="#linear-gradient-5"/><linearGradient id="linear-gradient-56" x1="1611.18" y1="1119.61" x2="2030.88" y2="1119.61" xlink:href="#linear-gradient-5"/><linearGradient id="linear-gradient-57" x1="1573.82" y1="935.34" x2="1919.84" y2="935.34" xlink:href="#linear-gradient"/><linearGradient id="linear-gradient-58" x1="1936.9" y1="935.83" x2="1966.42" y2="935.83" xlink:href="#linear-gradient"/><linearGradient id="linear-gradient-59" x1="1986.86" y1="935.83" x2="2016.38" y2="935.83" xlink:href="#linear-gradient"/><linearGradient id="linear-gradient-60" x1="2036.82" y1="935.83" x2="2066.34" y2="935.83" xlink:href="#linear-gradient"/><linearGradient id="linear-gradient-61" x1="1631.75" y1="836.33" x2="1538.01" y2="1064.56" gradientTransform="matrix(1, 0, 0, 1, 0, 0)" xlink:href="#linear-gradient-11"/><linearGradient id="linear-gradient-62" x1="2697.64" y1="2167.38" x2="2743.6" y2="2167.38" gradientTransform="translate(-1781.98 151.69) rotate(-25.51)" xlink:href="#linear-gradient-11"/><linearGradient id="linear-gradient-63" x1="1645.48" y1="841.97" x2="1551.75" y2="1070.2" gradientTransform="matrix(1, 0, 0, 1, 0, 0)" xlink:href="#linear-gradient-11"/><linearGradient id="linear-gradient-64" x1="1582.89" y1="1396.76" x2="1887.58" y2="1396.76" xlink:href="#linear-gradient"/><linearGradient id="linear-gradient-65" x1="1906.99" y1="1396.76" x2="2052.81" y2="1396.76" xlink:href="#linear-gradient"/><linearGradient id="linear-gradient-66" x1="1774.29" y1="1119.61" x2="1874.28" y2="1119.61" xlink:href="#linear-gradient"/><linearGradient id="linear-gradient-67" x1="1806.33" y1="1119.83" x2="1858.42" y2="1119.83" xlink:href="#linear-gradient"/><linearGradient id="linear-gradient-68" x1="935.95" y1="954.03" x2="963.44" y2="365.06" xlink:href="#linear-gradient-2"/><linearGradient id="linear-gradient-69" x1="1503.76" y1="382.65" x2="1162.16" y2="1317.14" xlink:href="#linear-gradient-2"/></defs><title>hexo-url-submission</title><g id="Background"><rect class="cls-1" width="2475" height="1650"/></g><g id="Illustration"><path class="cls-2" d="M1970.6,620c-117.37-61.1,82-239.53-89.66-351.68-271.31-177.23-502,29.81-581.38,119.51C1153,553.52,1127.52,730,721,467.94S163.82,673.88,286.69,802,347.81,932.39,270.91,1155s223.77,380.25,484.92,241.64,225.15-153,571.22-8.07,596.66-29,815.08-186C2577.36,889.74,2088,681.11,1970.6,620Z"/><path class="cls-3" d="M2247,1393.4a1.46,1.46,0,0,1-.93-2.59c1.5-1.24,3-2.49,4.42-3.77a1.46,1.46,0,1,1,1.93,2.19q-2.21,1.95-4.49,3.84A1.47,1.47,0,0,1,2247,1393.4Z"/><path class="cls-3" d="M2137.41,1434.9a1.47,1.47,0,0,1,0-2.93c3.74-.13,7.52-.37,11.24-.74a1.47,1.47,0,0,1,.29,2.92c-3.79.37-7.63.62-11.43.75Zm-18.44-.32h-.11c-3.79-.26-7.62-.64-11.39-1.14a1.46,1.46,0,0,1-1.26-1.64,1.44,1.44,0,0,1,1.64-1.26c3.71.49,7.48.86,11.21,1.12a1.46,1.46,0,0,1-.09,2.92Zm48-3.15a1.46,1.46,0,0,1-.29-2.9c3.66-.74,7.35-1.6,11-2.57a1.47,1.47,0,0,1,.76,2.83c-3.68,1-7.44,1.86-11.15,2.61Zm-77.48-1.31a1.24,1.24,0,0,1-.33,0c-3.7-.87-7.41-1.88-11.06-3a1.47,1.47,0,0,1,.86-2.81c3.58,1.09,7.24,2.08,10.87,2.94a1.46,1.46,0,0,1-.34,2.89Zm106.1-6.95a1.46,1.46,0,0,1-.52-2.83l1-.38c3.16-1.22,6.34-2.54,9.43-3.94a1.46,1.46,0,0,1,1.2,2.67c-3.14,1.42-6.36,2.77-9.58,4l-1,.38A1.37,1.37,0,0,1,2195.61,1423.17Zm-134.42-2.25a1.46,1.46,0,0,1-.57-.12c-3.51-1.47-7-3.06-10.41-4.74a1.46,1.46,0,1,1,1.29-2.62c3.35,1.65,6.8,3.22,10.25,4.66a1.47,1.47,0,0,1-.56,2.82Zm161.32-10.52a1.5,1.5,0,0,1-1.27-.73,1.48,1.48,0,0,1,.54-2c3.24-1.87,6.45-3.87,9.56-5.94a1.46,1.46,0,1,1,1.63,2.43c-3.16,2.11-6.43,4.14-9.72,6A1.55,1.55,0,0,1,2222.51,1410.4Zm-187.77-3.16a1.47,1.47,0,0,1-.77-.23c-3.23-2-6.43-4.16-9.51-6.37a1.46,1.46,0,0,1,1.7-2.38c3,2.17,6.18,4.28,9.36,6.27a1.47,1.47,0,0,1-.78,2.71Zm-23.86-17.8a1.46,1.46,0,0,1-1-.37c-2.85-2.51-5.66-5.15-8.34-7.83a1.46,1.46,0,1,1,2.07-2.07c2.64,2.64,5.4,5.23,8.21,7.71a1.46,1.46,0,0,1-1,2.56ZM1990.26,1368a1.46,1.46,0,0,1-1.14-.54c-2.39-2.94-4.72-6-6.93-9.09a1.46,1.46,0,1,1,2.38-1.7c2.18,3,4.47,6,6.83,8.94a1.46,1.46,0,0,1-.22,2.06A1.39,1.39,0,0,1,1990.26,1368Zm-16.82-24.56a1.44,1.44,0,0,1-1.27-.74c-1.88-3.3-3.68-6.7-5.35-10.11a1.46,1.46,0,0,1,2.63-1.29c1.64,3.36,3.41,6.71,5.27,10a1.46,1.46,0,0,1-1.28,2.19Zm-12.59-27a1.47,1.47,0,0,1-1.37-1c-1.33-3.58-2.55-7.23-3.65-10.85a1.47,1.47,0,0,1,2.81-.85c1.07,3.57,2.28,7.16,3.59,10.68a1.46,1.46,0,0,1-.87,1.88A1.29,1.29,0,0,1,1960.85,1316.44Zm-8.06-28.68a1.46,1.46,0,0,1-1.44-1.18c-.72-3.71-1.34-7.52-1.83-11.3a1.46,1.46,0,1,1,2.9-.38c.49,3.72,1.1,7.46,1.81,11.12a1.47,1.47,0,0,1-1.16,1.72A1.32,1.32,0,0,1,1952.79,1287.76Zm-3.26-29.6a1.48,1.48,0,0,1-1.47-1.42c0-1.65-.06-3.29-.06-4.93,0-2.18,0-4.38.12-6.52a1.47,1.47,0,0,1,1.46-1.42h.05a1.46,1.46,0,0,1,1.41,1.52c-.07,2.12-.11,4.27-.11,6.42,0,1.61,0,3.23.06,4.84a1.46,1.46,0,0,1-1.42,1.51Z"/><path class="cls-3" d="M1951.2,1228.32l-.21,0a1.45,1.45,0,0,1-1.24-1.65q.4-2.93.9-5.83a1.47,1.47,0,1,1,2.89.5c-.33,1.9-.63,3.82-.89,5.73A1.47,1.47,0,0,1,1951.2,1228.32Z"/><path class="cls-3" d="M2023,1107.21a1.46,1.46,0,0,1-.87-2.64q2.37-1.75,4.8-3.44a1.46,1.46,0,1,1,1.66,2.41c-1.59,1.1-3.17,2.23-4.72,3.38A1.49,1.49,0,0,1,2023,1107.21Z"/><path class="cls-3" d="M2312.47,1267h-.12a1.46,1.46,0,0,1-1.34-1.57c.3-3.94.47-7.93.51-11.89a1.47,1.47,0,0,1,1.47-1.45h0a1.46,1.46,0,0,1,1.45,1.48c0,4-.22,8.08-.52,12.08A1.46,1.46,0,0,1,2312.47,1267Zm-.33-31.45a1.46,1.46,0,0,1-1.46-1.32c-.39-3.92-.91-7.89-1.56-11.79a1.46,1.46,0,1,1,2.89-.48c.66,4,1.19,8,1.58,12a1.46,1.46,0,0,1-1.31,1.6Zm-5.79-30.91a1.47,1.47,0,0,1-1.41-1.08c-1.05-3.79-2.26-7.61-3.56-11.35a1.46,1.46,0,1,1,2.76-1c1.33,3.8,2.55,7.68,3.62,11.54a1.45,1.45,0,0,1-1,1.8A1.39,1.39,0,0,1,2306.35,1204.68Zm-11-29.47a1.46,1.46,0,0,1-1.32-.84c-1.69-3.57-3.53-7.13-5.45-10.58a1.46,1.46,0,1,1,2.56-1.42c2,3.5,3.82,7.12,5.54,10.75a1.47,1.47,0,0,1-.7,2A1.56,1.56,0,0,1,2295.35,1175.21Zm-15.87-27.15a1.46,1.46,0,0,1-1.2-.62c-2.28-3.22-4.7-6.4-7.19-9.46a1.46,1.46,0,1,1,2.27-1.85c2.53,3.11,5,6.35,7.31,9.62a1.46,1.46,0,0,1-.35,2A1.4,1.4,0,0,1,2279.48,1148.06Zm-20.34-24a1.48,1.48,0,0,1-1-.42c-2.8-2.78-5.74-5.5-8.72-8.08a1.46,1.46,0,0,1,1.91-2.22c3,2.63,6,5.4,8.87,8.21a1.47,1.47,0,0,1-1,2.51ZM2235,1104a1.41,1.41,0,0,1-.83-.26c-3.25-2.25-6.61-4.42-10-6.46a1.46,1.46,0,0,1,1.51-2.51c3.44,2.07,6.86,4.27,10.16,6.56a1.47,1.47,0,0,1-.84,2.67Zm-190.59-10.41a1.46,1.46,0,0,1-.7-2.75c3.52-1.91,7.16-3.73,10.81-5.41a1.46,1.46,0,1,1,1.22,2.66c-3.59,1.65-7.17,3.44-10.64,5.32A1.34,1.34,0,0,1,2044.37,1093.6Zm163.3-5.22a1.36,1.36,0,0,1-.61-.14c-3.59-1.66-7.27-3.22-11-4.64a1.47,1.47,0,1,1,1.06-2.74c3.74,1.45,7.49,3,11.13,4.73a1.46,1.46,0,0,1-.62,2.79ZM2073.2,1081a1.46,1.46,0,0,1-.47-2.85c3.81-1.29,7.7-2.46,11.58-3.49a1.46,1.46,0,1,1,.75,2.83c-3.81,1-7.64,2.17-11.39,3.43A1.33,1.33,0,0,1,2073.2,1081Zm104.91-3.37a1.58,1.58,0,0,1-.38-.05c-3.82-1-7.72-1.93-11.59-2.7a1.47,1.47,0,0,1,.57-2.88c3.94.79,7.9,1.71,11.78,2.75a1.47,1.47,0,0,1-.38,2.88Zm-74.36-4.09a1.46,1.46,0,0,1-.22-2.91c4-.61,8-1.1,12-1.44a1.43,1.43,0,0,1,1.58,1.33,1.46,1.46,0,0,1-1.33,1.58c-3.93.34-7.91.82-11.81,1.42Zm43.38-1.4H2147c-3.93-.35-7.93-.57-11.88-.66a1.45,1.45,0,0,1-1.43-1.49,1.49,1.49,0,0,1,1.49-1.44c4,.09,8.08.32,12.08.67a1.46,1.46,0,0,1-.13,2.92Z"/><path class="cls-3" d="M2308.74,1292.21a1.1,1.1,0,0,1-.31,0,1.46,1.46,0,0,1-1.12-1.74c.42-1.89.8-3.79,1.16-5.7a1.47,1.47,0,0,1,2.88.55q-.54,2.9-1.18,5.78A1.46,1.46,0,0,1,2308.74,1292.21Z"/><path class="cls-4" d="M2262.72,1298.66a2.18,2.18,0,0,0-.43-2.5l-18.84-18.7a115.48,115.48,0,0,0,2.13-37.4l20.83-16.43a2.18,2.18,0,0,0,.7-2.43l-10.49-30.06a2.2,2.2,0,0,0-2.07-1.47l-26.53.11a115.41,115.41,0,0,0-25-27.94l3.11-26.36a2.17,2.17,0,0,0-1.22-2.22l-28.68-13.83a2.18,2.18,0,0,0-2.5.43l-18.69,18.84a115.55,115.55,0,0,0-37.41-2.13l-16.43-20.83a2.19,2.19,0,0,0-2.43-.71l-30.06,10.5a2.18,2.18,0,0,0-1.46,2.07l.1,26.53a115.6,115.6,0,0,0-27.94,25l-26.36-3.11a2.18,2.18,0,0,0-2.22,1.22L1997,1205.88a2.2,2.2,0,0,0,.43,2.5l18.84,18.69a115.83,115.83,0,0,0-2.13,37.41l-20.82,16.43a2.16,2.16,0,0,0-.71,2.43l10.5,30.06a2.16,2.16,0,0,0,2.07,1.46l26.52-.1a116,116,0,0,0,25,27.94l-3.1,26.36a2.19,2.19,0,0,0,1.21,2.22l28.68,13.83a2.2,2.2,0,0,0,2.5-.43l18.69-18.84a115.83,115.83,0,0,0,37.41,2.13l16.43,20.82a2.18,2.18,0,0,0,2.43.71L2191,1379a2.18,2.18,0,0,0,1.47-2.07l-.11-26.52a115.83,115.83,0,0,0,27.94-25l26.36,3.1a2.18,2.18,0,0,0,2.22-1.21Z"/><path class="cls-3" d="M2129.93,1282a29.73,29.73,0,1,1,16.33-4.91A29.75,29.75,0,0,1,2129.93,1282Zm-.1-56.55a27,27,0,1,0,5.43.56A26.64,26.64,0,0,0,2129.83,1225.45Z"/><path class="cls-3" d="M2129.32,1330.33a78.27,78.27,0,1,1,77.46-89.31c.07.47.13.94.19,1.42a1.09,1.09,0,0,1,0,.18,1.46,1.46,0,0,1-1.28,1.45,1.48,1.48,0,0,1-1.64-1.27,76.17,76.17,0,0,0-3.66-15.63,75.35,75.35,0,1,0-13.29,73.16,1.47,1.47,0,0,1,2.25,1.88,78.41,78.41,0,0,1-60,28.12Z"/><path class="cls-4" d="M144.75,1041.81A4.47,4.47,0,0,1,148,1034c43.86,3.65,160.35,26.41,243.33,161.88,104.11,170,181.27,200.89,248.83,203.49,0,0-68.06,27.58-148.32-2.25C294.82,1323.85,203.71,1091.45,144.75,1041.81Z"/><path class="cls-5" d="M203.53,1073.1a175.32,175.32,0,0,1,24,14.37l2.89,2,2.82,2.07,5.63,4.13q5.52,4.27,11,8.64a468.18,468.18,0,0,1,40.71,38.21c13,13.33,24.81,27.76,36.53,42.22l8.46,11.1,4.23,5.56,2.11,2.78,2,2.84L360,1229.71a562.74,562.74,0,0,0,71.42,83.62c13.14,12.83,26.86,25.09,41.13,36.65,3.54,2.92,7.17,5.73,10.75,8.6s7.29,5.58,11,8.34,7.4,5.43,11.16,8,7.57,5.23,11.3,7.63l.11.07a4.33,4.33,0,0,1-4.6,7.33c-8.13-5-15.74-10.24-23.35-15.71-3.76-2.77-7.51-5.54-11.23-8.36s-7.39-5.69-11-8.62c-14.55-11.68-28.47-24.13-41.84-37.13-6.78-6.42-13.18-13.2-19.63-20-3.18-3.41-6.23-6.94-9.36-10.41l-4.66-5.22c-1.55-1.73-3-3.57-4.5-5.36l-8.92-10.78c-2.94-3.62-5.69-7.4-8.55-11.09l-4.24-5.57c-.7-.93-1.44-1.84-2.11-2.79l-2-2.88-8-11.49c-2.7-3.84-5.25-7.63-7.84-11.44l-7.77-11.43-1.94-2.85-2-2.79-4.08-5.57-8.14-11.15-8.52-10.87c-2.85-3.61-5.63-7.29-8.65-10.76L295,1157.2c-1.46-1.78-3-3.48-4.54-5.2l-4.6-5.14a462,462,0,0,0-39.05-39q-5.22-4.51-10.49-9l-5.4-4.3-2.69-2.16-2.77-2c-1.85-1.37-3.67-2.78-5.55-4.1l-5.67-3.92c-3.83-2.5-7.71-5.08-11.7-7.18l0,0a1.16,1.16,0,0,1,1-2.07Z"/><path class="cls-3" d="M266.93,890.45c18.77,67.19,143.71,477.68,405.74,515.79a10.77,10.77,0,0,0,11.75-14.09c-16.22-48.37-76.47-198.44-236.24-338.49C332.9,952.61,286.17,904.87,270.8,888.28A2.28,2.28,0,0,0,266.93,890.45Z"/><path class="cls-5" d="M684.48,1394.65a2.42,2.42,0,0,1-1.62-.55c-98.6-79.19-183.61-175.54-237.56-242.43-58-71.87-96.57-130.19-96.95-134.28a2.5,2.5,0,0,1,4.94-.75c3.42,8.92,145.43,223.16,332.7,373.56a2.5,2.5,0,0,1-1.51,4.45ZM353.33,1016.92h0Z"/><path class="cls-3" d="M1838.64,730.69s117.91-17.48,181.23-145.84C2081.42,460.09,2137.23,276.27,2301,267a6.33,6.33,0,0,1,5.23,10.36c-20.89,25.1-72.33,91.58-102.26,170.27C2165.72,548.1,2023.57,770.32,1838.64,730.69Z"/><path class="cls-5" d="M2256.09,310.18l-.31.1-.44.16c-.3.1-.6.22-.91.35-.62.23-1.24.5-1.86.76-1.24.54-2.48,1.1-3.71,1.71q-3.69,1.78-7.29,3.83a154.72,154.72,0,0,0-13.94,8.94c-4.51,3.2-8.82,6.68-13,10.31s-8.2,7.45-12.09,11.41A226,226,0,0,0,2164.23,402a277.81,277.81,0,0,0-13.3,30.67l-2.78,7.91-2.51,8-2.53,8.11c-.84,2.72-1.69,5.43-2.62,8.12a513.63,513.63,0,0,1-25.85,63l-3.78,7.63-3.94,7.54c-1.29,2.53-2.67,5-4,7.5s-2.71,5-4.15,7.43c-5.61,9.87-11.61,19.51-17.81,29s-12.9,18.67-19.77,27.7-14.18,17.71-21.71,26.19-15.5,16.55-23.72,24.35a335.12,335.12,0,0,1-25.89,22,273.43,273.43,0,0,1-28.09,19.06,242.13,242.13,0,0,1-30.26,15.26,241.21,241.21,0,0,0,29.82-16,272.93,272.93,0,0,0,27.48-19.67q13.13-10.65,25.21-22.48t23.08-24.64q11-12.84,21-26.4t19.07-27.84c6-9.51,11.81-19.14,17.22-29,1.39-2.44,2.66-4.95,4-7.43s2.65-5,3.89-7.47l3.79-7.53,3.64-7.61a508.52,508.52,0,0,0,24.62-62.67c.88-2.67,1.68-5.35,2.47-8.05s1.56-5.34,2.41-8.09l2.51-8.19,2.77-8.11a282.2,282.2,0,0,1,13.4-31.57,233,233,0,0,1,17.52-29.58,219.15,219.15,0,0,1,21.91-26.57,184,184,0,0,1,26.19-22.45,163.24,163.24,0,0,1,14.67-9.2c1.26-.72,2.56-1.37,3.83-2s2.6-1.3,3.93-1.9,2.66-1.2,4-1.76c.68-.27,1.37-.55,2.07-.81l1.08-.39.56-.19.7-.21a3.34,3.34,0,0,1,2,6.37Z"/><path class="cls-4" d="M2299.69,566.06a3.46,3.46,0,0,0-1.46-6.42c-33.9-3-125.65-1.23-206.89,90.91-101.93,115.61-164.82,128.9-216.63,121.89,0,0,48.18,30.06,113.28,18C2147.84,760.91,2248.18,596,2299.69,566.06Z"/><path class="cls-5" d="M2251.23,583.8c-3.32,1.06-6.62,2.51-9.87,3.9l-4.84,2.24c-1.61.75-3.18,1.59-4.77,2.38l-2.38,1.2L2227,594.8l-4.68,2.56q-4.61,2.68-9.18,5.44a356.63,356.63,0,0,0-34.94,24.49L2174,630.6c-1.4,1.1-2.8,2.19-4.15,3.35l-8.18,6.86c-2.76,2.24-5.36,4.68-8,7.05l-7.94,7.14-7.69,7.41-3.84,3.7L2132.3,668l-1.86,1.92-7.43,7.67c-2.49,2.56-4.93,5.11-7.5,7.67l-7.63,7.69-1.9,1.92c-.64.64-1.32,1.24-2,1.85l-4,3.68c-2.67,2.43-5.27,4.94-8,7.31l-8.23,7c-1.39,1.16-2.73,2.37-4.14,3.49l-4.25,3.35c-2.84,2.23-5.63,4.51-8.51,6.69-5.81,4.28-11.59,8.59-17.61,12.58-11.92,8.12-24.17,15.75-36.81,22.71-3.15,1.75-6.36,3.4-9.54,5.1s-6.44,3.26-9.67,4.87c-6.52,3.16-13,6.15-19.87,8.86a3.35,3.35,0,0,1-2.54-6.19l.1,0c3.16-1.34,6.43-2.79,9.62-4.31s6.39-3.07,9.57-4.63,6.32-3.23,9.46-4.89,6.25-3.37,9.33-5.13q18.61-10.35,36.21-22.44a435.13,435.13,0,0,0,65.53-54.18l15.3-15.17,1.91-1.89,2-1.84,4-3.67,7.92-7.33c10.86-9.45,21.76-18.87,33.45-27.3a361.63,361.63,0,0,1,36.1-23.68q4.74-2.6,9.51-5.12l4.84-2.4,2.42-1.2,2.46-1.11a136.9,136.9,0,0,1,20.21-7.76.9.9,0,0,1,.52,1.72Z"/><path class="cls-6" d="M1912.64,1354.52a23.84,23.84,0,0,1-23.78,23.76H602.63a23.84,23.84,0,0,1-23.79-23.76l-10.7-739.16c0-13.07,15.4-38.59,43.62-36.67l1257-32.52a59.93,59.93,0,0,1,61.51,61.3Z"/><path class="cls-7" d="M1889.16,1331.72a22.57,22.57,0,0,1-22.5,22.51h-1233a22.57,22.57,0,0,1-22.5-22.51l-10.1-671c1.19-40.38,36.59-54.9,58.05-54l1204.77-32.32a42.13,42.13,0,0,1,43.22,43.11Z"/><path class="cls-8" d="M624.47,1011.34a1.69,1.69,0,0,1-1.7-1.67l-.8-54.42a1.7,1.7,0,0,1,1.67-1.72h0a1.7,1.7,0,0,1,1.7,1.67l.8,54.42a1.7,1.7,0,0,1-1.68,1.72Z"/><path class="cls-1" d="M622.51,878a1.7,1.7,0,0,1-1.7-1.67l-3.06-208.43c.06-13.88,4.34-25,12.71-33,15.24-14.6,39.08-13.86,40.09-13.83l384.75-10.32a1.7,1.7,0,1,1,.09,3.39L670.55,624.47c-1.08-.05-23.53-.73-37.74,12.88-7.68,7.36-11.6,17.63-11.66,30.53l3.06,208.39a1.71,1.71,0,0,1-1.68,1.72Z"/><path class="cls-8" d="M665.46,1294.5c1.3-55.46.81-546.58-2.37-589s62.88-50.37,164.3-55.15,957.14-23.67,979.17-25.45c49.52-4,59.77,70,54.82,230.71-3.72,120.73-9.89,319.62-12.73,411.08a50.47,50.47,0,0,1-50.35,48.92c-205.92.57-995.16,2.83-1047.7,4.39C690.14,1321.81,665,1316.49,665.46,1294.5Z"/><rect class="cls-9" x="500.57" y="1374.7" width="1516.41" height="64.95" rx="10.26"/><rect class="cls-10" x="328.67" y="219.62" width="579.12" height="601.96" rx="43.37"/><rect class="cls-4" x="356.57" y="237.25" width="524.33" height="568.38" rx="43.37"/><rect class="cls-11" x="374.2" y="253.21" width="346.02" height="36.07" rx="16.53"/><path class="cls-12" d="M752.05,285.65c-8.14,0-14.76-6.24-14.76-13.91s6.62-13.91,14.76-13.91,14.76,6.24,14.76,13.91S760.19,285.65,752.05,285.65Zm0-23.95c-6,0-10.9,4.5-10.9,10s4.89,10,10.9,10,10.89-4.5,10.89-10S758.05,261.7,752.05,261.7Z"/><path class="cls-13" d="M802,285.65c-8.14,0-14.77-6.24-14.77-13.91s6.63-13.91,14.77-13.91,14.76,6.24,14.76,13.91S810.14,285.65,802,285.65Zm0-23.95c-6,0-10.9,4.5-10.9,10s4.89,10,10.9,10,10.89-4.5,10.89-10S808,261.7,802,261.7Z"/><path class="cls-14" d="M852,285.65c-8.14,0-14.76-6.24-14.76-13.91s6.62-13.91,14.76-13.91,14.76,6.24,14.76,13.91S860.1,285.65,852,285.65Zm0-23.95c-6,0-10.89,4.5-10.89,10s4.89,10,10.89,10,10.9-4.5,10.9-10S858,261.7,852,261.7Z"/><path class="cls-15" d="M701,279.18H393.93a7.59,7.59,0,1,1,0-15.18H701a7.59,7.59,0,1,1,0,15.18Z"/><path class="cls-16" d="M392.33,290.3l-34.71,35.34a3.57,3.57,0,0,0,.25,5.23l.26.22a3.33,3.33,0,0,0,4.69-.42l31.78-38.34Z"/><ellipse class="cls-17" cx="407.25" cy="271.89" rx="22.98" ry="22.56" transform="translate(-77.4 201.93) rotate(-25.51)"/><path class="cls-18" d="M396.44,249.23a25.11,25.11,0,1,0,33.89,11.65A25.35,25.35,0,0,0,396.44,249.23Zm20,42a21.42,21.42,0,1,1,10.46-28.72A21.62,21.62,0,0,1,416.48,291.22Z"/><path class="cls-19" d="M833,383.92H406.53a8.87,8.87,0,0,1,0-17.73H833a8.87,8.87,0,0,1,0,17.73Z"/><path class="cls-20" d="M765.13,348.91H468.37a8.86,8.86,0,0,1,0-17.72H765.13a8.86,8.86,0,0,1,0,17.72Z"/><rect class="cls-3" x="407.54" y="412.5" width="426.36" height="355.94" rx="25.14"/><path class="cls-21" d="M796,447H444.21a8.86,8.86,0,1,1,0-17.72H796A8.86,8.86,0,1,1,796,447Z"/><path class="cls-21" d="M795.69,480.8H443.89a8.86,8.86,0,0,1,0-17.72h351.8a8.86,8.86,0,0,1,0,17.72Z"/><path class="cls-21" d="M796.7,516.77H444.9a8.86,8.86,0,1,1,0-17.72H796.7a8.86,8.86,0,1,1,0,17.72Z"/><path class="cls-21" d="M796.38,550.6H444.58a8.86,8.86,0,1,1,0-17.72h351.8a8.86,8.86,0,0,1,0,17.72Z"/><path class="cls-21" d="M795.84,581.53H444a8.86,8.86,0,1,1,0-17.72H795.84a8.86,8.86,0,0,1,0,17.72Z"/><path class="cls-21" d="M795.52,615.37H443.71a8.86,8.86,0,1,1,0-17.72H795.52a8.86,8.86,0,0,1,0,17.72Z"/><path class="cls-21" d="M796.53,651.34H444.72a8.87,8.87,0,0,1,0-17.73H796.53a8.87,8.87,0,0,1,0,17.73Z"/><path class="cls-21" d="M796.21,685.17H444.4a8.86,8.86,0,0,1,0-17.72H796.21a8.86,8.86,0,1,1,0,17.72Z"/><path class="cls-21" d="M795.51,717.14H443.7a8.86,8.86,0,0,1,0-17.72H795.51a8.86,8.86,0,0,1,0,17.72Z"/><path class="cls-21" d="M796.52,753.11H444.71a8.86,8.86,0,1,1,0-17.72H796.52a8.86,8.86,0,0,1,0,17.72Z"/><path class="cls-22" d="M1899.29,672.53a2.42,2.42,0,0,1,0-4.83c2.21,0,4.47-.08,6.69-.16a2.42,2.42,0,0,1,.18,4.83c-2.27.08-4.57.14-6.83.16Zm-6.76,0h0c-2.28,0-4.58-.11-6.82-.21a2.42,2.42,0,0,1,.21-4.83c2.21.1,4.46.17,6.7.21a2.42,2.42,0,0,1,0,4.83Zm20.27-.46a2.42,2.42,0,0,1-.15-4.83c2.22-.14,4.46-.32,6.68-.52a2.42,2.42,0,0,1,.44,4.82c-2.26.2-4.55.38-6.81.52ZM1879,671.9h-.17c-2.28-.16-4.57-.36-6.81-.58a2.42,2.42,0,0,1,.48-4.81c2.19.22,4.44.41,6.67.57a2.42,2.42,0,0,1-.17,4.83Zm47.27-1.09A2.41,2.41,0,0,1,1926,666c2.24-.27,4.47-.56,6.64-.88a2.42,2.42,0,1,1,.7,4.78c-2.21.32-4.49.63-6.77.9Zm-60.73-.24-.3,0c-2.27-.29-4.55-.61-6.77-1a2.41,2.41,0,1,1,.74-4.77c2.18.34,4.41.65,6.63.93a2.42,2.42,0,0,1-.3,4.82Zm74.11-1.71a2.42,2.42,0,0,1-.41-4.8c2.19-.38,4.41-.8,6.58-1.24a2.41,2.41,0,1,1,1,4.73c-2.21.45-4.47.88-6.71,1.27A3,3,0,0,1,1939.66,668.86Zm-87.48-.36a3.13,3.13,0,0,1-.43,0c-2.23-.41-4.48-.86-6.71-1.33a2.42,2.42,0,0,1,1-4.73c2.18.47,4.4.9,6.58,1.3a2.42,2.42,0,0,1-.44,4.8Zm100.74-2.33a2.42,2.42,0,0,1-.54-4.78c2.16-.5,4.34-1,6.5-1.6a2.42,2.42,0,0,1,1.22,4.68c-2.2.57-4.43,1.12-6.63,1.63A2.13,2.13,0,0,1,1952.92,666.17Zm-114-.47a2.78,2.78,0,0,1-.57-.07c-2.21-.53-4.44-1.1-6.62-1.69a2.42,2.42,0,0,1,1.26-4.67c2.14.58,4.33,1.14,6.49,1.66a2.42,2.42,0,0,1-.56,4.77Zm127.06-3a2.42,2.42,0,0,1-.67-4.74c2.13-.62,4.28-1.28,6.4-2a2.42,2.42,0,1,1,1.48,4.6c-2.16.7-4.36,1.37-6.53,2A2.33,2.33,0,0,1,1966,662.75Zm-140.12-.58a2.42,2.42,0,0,1-.7-.1c-2.17-.66-4.37-1.35-6.52-2.06a2.42,2.42,0,0,1,1.52-4.59c2.11.7,4.26,1.38,6.39,2a2.42,2.42,0,0,1-.69,4.73Zm153-3.56a2.41,2.41,0,0,1-.8-4.69c2.09-.74,4.21-1.52,6.29-2.31a2.42,2.42,0,1,1,1.73,4.51c-2.13.81-4.28,1.61-6.42,2.36A2.44,2.44,0,0,1,1978.89,658.61ZM1813,657.92a2.33,2.33,0,0,1-.82-.15c-2.16-.77-4.31-1.59-6.42-2.41a2.42,2.42,0,0,1,1.77-4.5c2.06.81,4.18,1.61,6.29,2.37a2.42,2.42,0,0,1-.82,4.69Zm178.48-4.14a2.42,2.42,0,0,1-.92-4.65c2-.84,4.1-1.73,6.13-2.64a2.42,2.42,0,1,1,2,4.41c-2.07.93-4.17,1.84-6.25,2.7A2.52,2.52,0,0,1,1991.5,653.78ZM1800.39,653a2.45,2.45,0,0,1-1-.2c-2.1-.89-4.21-1.82-6.26-2.76a2.42,2.42,0,0,1,2-4.4c2,.93,4.08,1.84,6.14,2.72a2.42,2.42,0,0,1-.94,4.64Zm203.43-4.68a2.42,2.42,0,0,1-1-4.6c2-1,4-2,6-3A2.42,2.42,0,0,1,2011,645c-2,1-4.06,2-6.1,3A2.43,2.43,0,0,1,2003.82,648.28Zm-215.76-1a2.4,2.4,0,0,1-1.07-.25c-2-1-4.11-2.06-6.1-3.11a2.41,2.41,0,1,1,2.25-4.27c2,1,4,2.05,6,3a2.42,2.42,0,0,1-1.07,4.59Zm227.75-5.22a2.41,2.41,0,0,1-1.16-4.53c1.93-1.06,3.89-2.18,5.81-3.3a2.42,2.42,0,1,1,2.44,4.17c-2,1.15-4,2.28-5.92,3.37A2.44,2.44,0,0,1,2015.81,642.09ZM1776.06,641a2.42,2.42,0,0,1-1.18-.31c-2-1.11-4-2.27-5.92-3.43a2.42,2.42,0,0,1,2.49-4.15c1.9,1.14,3.86,2.28,5.8,3.37a2.42,2.42,0,0,1-1.19,4.52Zm251.4-5.73a2.41,2.41,0,0,1-1.28-4.46c1.87-1.17,3.77-2.39,5.62-3.62a2.42,2.42,0,1,1,2.67,4c-1.89,1.25-3.82,2.5-5.73,3.69A2.39,2.39,0,0,1,2027.46,635.26Zm-263-1.23a2.42,2.42,0,0,1-1.3-.38c-1.89-1.21-3.82-2.47-5.71-3.75a2.42,2.42,0,0,1,2.7-4c1.86,1.26,3.75,2.5,5.61,3.69a2.41,2.41,0,0,1-1.3,4.45Zm274.28-6.23a2.41,2.41,0,0,1-1.39-4.39c1.81-1.27,3.63-2.59,5.42-3.92a2.42,2.42,0,0,1,2.89,3.88c-1.83,1.36-3.69,2.7-5.53,4A2.45,2.45,0,0,1,2038.72,627.8Zm-285.5-1.36a2.39,2.39,0,0,1-1.41-.45c-1.84-1.32-3.69-2.69-5.5-4.06a2.42,2.42,0,0,1,2.92-3.85c1.78,1.35,3.59,2.69,5.4,4a2.42,2.42,0,0,1-1.41,4.38Zm296.34-6.7a2.42,2.42,0,0,1-1.49-4.32c1.74-1.37,3.49-2.79,5.2-4.21a2.42,2.42,0,0,1,3.09,3.72c-1.74,1.45-3.53,2.89-5.3,4.29A2.42,2.42,0,0,1,2049.56,619.74Zm-307.13-1.48a2.4,2.4,0,0,1-1.51-.53c-1.75-1.41-3.52-2.88-5.27-4.35a2.42,2.42,0,0,1,3.13-3.69c1.71,1.45,3.45,2.89,5.17,4.27a2.42,2.42,0,0,1-1.52,4.3ZM2060,611.09a2.42,2.42,0,0,1-1.59-4.23c1.67-1.47,3.34-3,5-4.49a2.42,2.42,0,1,1,3.29,3.54c-1.65,1.54-3.36,3.08-5.06,4.58A2.43,2.43,0,0,1,2060,611.09Zm-327.83-1.59a2.4,2.4,0,0,1-1.62-.62c-1.69-1.51-3.38-3.07-5-4.63a2.42,2.42,0,0,1,3.32-3.51c1.62,1.53,3.27,3.06,4.93,4.55a2.41,2.41,0,0,1-1.61,4.21Zm337.74-7.61a2.42,2.42,0,0,1-1.69-4.15c1.59-1.55,3.17-3.15,4.72-4.75a2.42,2.42,0,1,1,3.47,3.36c-1.57,1.63-3.19,3.26-4.81,4.84A2.38,2.38,0,0,1,2069.86,601.89Zm-347.57-1.69a2.41,2.41,0,0,1-1.7-.71c-1.6-1.6-3.2-3.24-4.77-4.89a2.42,2.42,0,0,1,3.51-3.33c1.54,1.62,3.11,3.24,4.67,4.8a2.42,2.42,0,0,1-1.71,4.13Zm357-8.05a2.42,2.42,0,0,1-1.79-4c1.49-1.63,3-3.32,4.46-5a2.41,2.41,0,1,1,3.65,3.16c-1.49,1.73-3,3.44-4.54,5.11A2.41,2.41,0,0,1,2079.26,592.15ZM1713,590.38a2.37,2.37,0,0,1-1.8-.81c-1.52-1.68-3-3.42-4.49-5.14a2.42,2.42,0,1,1,3.68-3.13c1.44,1.69,2.92,3.39,4.4,5.05a2.42,2.42,0,0,1-1.79,4Zm375.11-8.46a2.4,2.4,0,0,1-1.53-.55,2.42,2.42,0,0,1-.34-3.4c1.41-1.72,2.81-3.48,4.18-5.24a2.42,2.42,0,1,1,3.82,3c-1.39,1.79-2.82,3.59-4.26,5.34A2.4,2.4,0,0,1,2088.11,581.92Zm-383.86-1.85a2.43,2.43,0,0,1-1.89-.9c-1.41-1.77-2.82-3.58-4.2-5.38a2.42,2.42,0,0,1,3.85-2.93c1.35,1.78,2.73,3.55,4.12,5.28a2.41,2.41,0,0,1-1.88,3.93Zm392.15-8.86a2.41,2.41,0,0,1-2-3.84c1.31-1.79,2.62-3.63,3.88-5.47a2.42,2.42,0,0,1,4,2.75c-1.29,1.87-2.63,3.75-4,5.57A2.4,2.4,0,0,1,2096.4,571.21Zm-400.32-1.91a2.45,2.45,0,0,1-2-1c-1.31-1.84-2.62-3.72-3.9-5.6a2.42,2.42,0,1,1,4-2.71c1.25,1.85,2.53,3.69,3.82,5.49a2.42,2.42,0,0,1-.55,3.37A2.39,2.39,0,0,1,1696.08,569.3Zm408-9.23a2.47,2.47,0,0,1-1.32-.39,2.43,2.43,0,0,1-.7-3.35c1.21-1.86,2.42-3.77,3.58-5.67a2.41,2.41,0,1,1,4.12,2.52c-1.18,1.94-2.41,3.88-3.65,5.79A2.42,2.42,0,0,1,2104.09,560.07Zm-415.58-2a2.41,2.41,0,0,1-2-1.11c-1.22-1.92-2.43-3.87-3.58-5.8a2.42,2.42,0,1,1,4.14-2.49c1.14,1.9,2.32,3.81,3.52,5.69a2.43,2.43,0,0,1-.74,3.34A2.47,2.47,0,0,1,1688.51,558.11Zm422.65-9.6a2.37,2.37,0,0,1-1.2-.32,2.42,2.42,0,0,1-.89-3.3c1.11-1.92,2.21-3.89,3.27-5.86a2.41,2.41,0,0,1,4.25,2.29c-1.08,2-2.2,4-3.33,6A2.41,2.41,0,0,1,2111.16,548.51Zm-429.59-2a2.4,2.4,0,0,1-2.11-1.23c-1.11-2-2.21-4-3.26-6a2.42,2.42,0,1,1,4.28-2.26c1,2,2.1,3.94,3.19,5.87a2.41,2.41,0,0,1-2.1,3.6Zm436-9.95a2.36,2.36,0,0,1-1.09-.26,2.41,2.41,0,0,1-1.07-3.24c1-2,2-4,2.94-6a2.42,2.42,0,1,1,4.37,2.06c-1,2.06-2,4.13-3,6.15A2.41,2.41,0,0,1,2117.6,536.58Zm-442.33-2a2.43,2.43,0,0,1-2.17-1.35c-1-2-2-4.1-2.92-6.15a2.42,2.42,0,1,1,4.39-2c.92,2,1.89,4,2.87,6a2.42,2.42,0,0,1-2.17,3.49Zm448.09-10.29a2.5,2.5,0,0,1-1-.2,2.42,2.42,0,0,1-1.25-3.18c.89-2,1.77-4.13,2.6-6.2a2.42,2.42,0,0,1,4.48,1.81c-.85,2.11-1.74,4.24-2.65,6.32A2.43,2.43,0,0,1,2123.36,524.31Zm-453.71-2a2.42,2.42,0,0,1-2.23-1.47c-.89-2.08-1.76-4.2-2.58-6.3a2.41,2.41,0,1,1,4.49-1.77c.82,2.05,1.67,4.13,2.54,6.17a2.42,2.42,0,0,1-1.28,3.17A2.44,2.44,0,0,1,1669.65,522.34Zm458.8-10.61a2.54,2.54,0,0,1-.85-.15,2.43,2.43,0,0,1-1.42-3.11c.78-2.1,1.54-4.23,2.26-6.33a2.41,2.41,0,1,1,4.57,1.56c-.73,2.14-1.5,4.32-2.3,6.46A2.41,2.41,0,0,1,2128.45,511.73Zm-463.76-2a2.42,2.42,0,0,1-2.27-1.59c-.77-2.14-1.53-4.31-2.24-6.46a2.42,2.42,0,0,1,4.59-1.52c.7,2.11,1.43,4.23,2.19,6.33a2.4,2.4,0,0,1-2.27,3.24Zm468.14-10.89a2.25,2.25,0,0,1-.72-.11,2.42,2.42,0,0,1-1.59-3c.66-2.11,1.3-4.28,1.9-6.42a2.41,2.41,0,1,1,4.65,1.3c-.61,2.19-1.26,4.4-1.93,6.55A2.42,2.42,0,0,1,2132.83,498.88Zm-472.4-1.95a2.4,2.4,0,0,1-2.31-1.72c-.65-2.16-1.28-4.37-1.88-6.57a2.41,2.41,0,1,1,4.66-1.26c.59,2.15,1.21,4.32,1.85,6.44a2.41,2.41,0,0,1-2.32,3.11Zm476.05-11.07a2.46,2.46,0,0,1-.59-.08,2.41,2.41,0,0,1-1.75-2.93c.54-2.17,1.06-4.36,1.54-6.52a2.42,2.42,0,0,1,4.72,1.05c-.49,2.2-1,4.44-1.57,6.65A2.43,2.43,0,0,1,2136.48,485.86Zm-479.59-2a2.43,2.43,0,0,1-2.35-1.85c-.53-2.21-1-4.45-1.51-6.67a2.41,2.41,0,1,1,4.72-1c.47,2.17,1,4.37,1.49,6.53a2.42,2.42,0,0,1-1.78,2.92A2.78,2.78,0,0,1,1656.89,483.88Zm482.52-11.23a2.49,2.49,0,0,1-.46,0,2.41,2.41,0,0,1-1.91-2.83c.42-2.18.81-4.4,1.18-6.59a2.41,2.41,0,1,1,4.76.78c-.36,2.24-.77,4.5-1.2,6.73A2.42,2.42,0,0,1,2139.41,472.65Zm-485.34-2a2.43,2.43,0,0,1-2.38-2c-.41-2.23-.79-4.49-1.14-6.73a2.41,2.41,0,0,1,4.77-.75c.35,2.2.73,4.42,1.13,6.61a2.42,2.42,0,0,1-1.94,2.81A2.25,2.25,0,0,1,1654.07,470.64Zm487.54-11.34-.33,0a2.42,2.42,0,0,1-2.07-2.72c.3-2.21.58-4.44.82-6.65a2.41,2.41,0,1,1,4.8.52c-.24,2.25-.52,4.54-.83,6.78A2.41,2.41,0,0,1,2141.61,459.3Zm-489.63-2a2.41,2.41,0,0,1-2.39-2.11c-.29-2.26-.55-4.54-.78-6.79a2.42,2.42,0,1,1,4.81-.48c.22,2.2.48,4.44.76,6.65a2.41,2.41,0,0,1-2.09,2.71Zm491.09-11.43h-.2a2.41,2.41,0,0,1-2.21-2.6c.18-2.21.33-4.46.45-6.69a2.42,2.42,0,0,1,4.83.26c-.12,2.27-.28,4.57-.46,6.82A2.42,2.42,0,0,1,2143.07,445.85Zm-492.44-2a2.43,2.43,0,0,1-2.41-2.24c-.16-2.25-.3-4.55-.4-6.82a2.42,2.42,0,1,1,4.83-.22c.1,2.23.23,4.48.39,6.69a2.41,2.41,0,0,1-2.23,2.58Zm493.17-11.48h-.07a2.42,2.42,0,0,1-2.35-2.48c.06-2.21.09-4.47.09-6.7a2.39,2.39,0,0,1,.4-1.32,2.31,2.31,0,0,1-.41-1.31c0-2.23-.08-4.48-.16-6.7a2.42,2.42,0,0,1,4.83-.18c.08,2.26.14,4.56.16,6.82a2.46,2.46,0,0,0,0,2.69c0,2.28,0,4.57-.09,6.83A2.43,2.43,0,0,1,2143.8,432.34Zm-493.79-2a2.41,2.41,0,0,1-2.41-2.37c0-1.59,0-3.18,0-4.77,0-.69,0-1.37,0-2.06a2.42,2.42,0,1,1,4.83,0v2c0,1.56,0,3.12,0,4.68a2.42,2.42,0,0,1-2.37,2.46Zm.11-13.53H1650a2.41,2.41,0,0,1-2.33-2.5c.08-2.26.19-4.56.33-6.82a2.41,2.41,0,0,1,4.82.3c-.13,2.22-.24,4.47-.32,6.69A2.42,2.42,0,0,1,1650.12,416.77Zm493.25-7.37a2.41,2.41,0,0,1-2.41-2.26c-.15-2.22-.32-4.47-.53-6.67a2.42,2.42,0,0,1,4.82-.45c.2,2.25.38,4.54.53,6.81a2.42,2.42,0,0,1-2.26,2.57ZM1651,403.27h-.22a2.41,2.41,0,0,1-2.19-2.62c.2-2.26.43-4.54.7-6.8a2.42,2.42,0,1,1,4.8.57c-.26,2.2-.49,4.45-.69,6.66A2.41,2.41,0,0,1,1651,403.27Zm491.16-7.34a2.42,2.42,0,0,1-2.4-2.13c-.26-2.2-.56-4.43-.89-6.64a2.42,2.42,0,1,1,4.78-.7c.34,2.24.64,4.52.91,6.77a2.42,2.42,0,0,1-2.11,2.69Zm-489.59-6.1a2.06,2.06,0,0,1-.35,0,2.41,2.41,0,0,1-2-2.74c.32-2.24.68-4.51,1.07-6.75a2.42,2.42,0,0,1,4.76.83c-.38,2.2-.73,4.42-1,6.61A2.42,2.42,0,0,1,1652.54,389.83Zm487.61-7.28a2.42,2.42,0,0,1-2.38-2c-.38-2.18-.8-4.4-1.25-6.58a2.42,2.42,0,0,1,4.74-1c.45,2.23.88,4.49,1.27,6.72a2.4,2.4,0,0,1-2,2.79A2,2,0,0,1,2140.15,382.55Zm-485.3-6a2.61,2.61,0,0,1-.48-.05,2.42,2.42,0,0,1-1.89-2.85c.44-2.21.93-4.46,1.44-6.68a2.42,2.42,0,0,1,4.71,1.09c-.5,2.17-1,4.37-1.42,6.55A2.42,2.42,0,0,1,1654.85,376.51Zm482.6-7.21a2.43,2.43,0,0,1-2.36-1.87c-.5-2.17-1-4.36-1.61-6.5a2.42,2.42,0,0,1,4.68-1.23c.57,2.19,1.13,4.42,1.64,6.63a2.41,2.41,0,0,1-1.8,2.9A2.13,2.13,0,0,1,2137.45,369.3Zm-479.57-6a2.06,2.06,0,0,1-.6-.08,2.41,2.41,0,0,1-1.74-2.94c.57-2.19,1.18-4.41,1.81-6.59a2.42,2.42,0,0,1,4.65,1.34c-.62,2.14-1.22,4.31-1.78,6.46A2.41,2.41,0,0,1,1657.88,363.32ZM2134,356.21a2.42,2.42,0,0,1-2.32-1.74c-.62-2.13-1.28-4.29-2-6.4a2.42,2.42,0,0,1,4.6-1.48c.69,2.15,1.37,4.35,2,6.53a2.4,2.4,0,0,1-1.64,3A2.24,2.24,0,0,1,2134,356.21Zm-472.37-5.88a2.33,2.33,0,0,1-.73-.12,2.43,2.43,0,0,1-1.57-3c.69-2.16,1.43-4.35,2.18-6.5a2.42,2.42,0,1,1,4.56,1.6c-.74,2.11-1.46,4.25-2.13,6.37A2.43,2.43,0,0,1,1661.64,350.33Zm468.22-7a2.41,2.41,0,0,1-2.27-1.61c-.74-2.09-1.52-4.2-2.32-6.28a2.42,2.42,0,1,1,4.51-1.74c.82,2.12,1.61,4.28,2.36,6.41a2.42,2.42,0,0,1-1.47,3.09A2.54,2.54,0,0,1,2129.86,343.33Zm-463.73-5.81a2.38,2.38,0,0,1-.86-.16,2.42,2.42,0,0,1-1.4-3.12c.81-2.12,1.66-4.26,2.54-6.37a2.41,2.41,0,1,1,4.46,1.85c-.85,2.07-1.69,4.17-2.48,6.24A2.43,2.43,0,0,1,1666.13,337.52ZM2125,330.73a2.4,2.4,0,0,1-2.23-1.49c-.85-2.05-1.75-4.11-2.65-6.13a2.42,2.42,0,0,1,4.41-2c.92,2.06,1.83,4.16,2.7,6.25a2.42,2.42,0,0,1-1.3,3.16A2.38,2.38,0,0,1,2125,330.73ZM1671.32,325a2.48,2.48,0,0,1-1-.21,2.42,2.42,0,0,1-1.22-3.19c.93-2.08,1.9-4.17,2.88-6.21a2.42,2.42,0,1,1,4.36,2.09c-1,2-1.91,4.05-2.82,6.09A2.43,2.43,0,0,1,1671.32,325Zm448.18-6.55a2.43,2.43,0,0,1-2.18-1.37c-1-2-2-4-3-6a2.42,2.42,0,0,1,4.3-2.22c1,2,2.06,4.06,3,6.1a2.41,2.41,0,0,1-1.12,3.22A2.35,2.35,0,0,1,2119.5,318.43Zm-442.31-5.67a2.45,2.45,0,0,1-1.11-.27,2.42,2.42,0,0,1-1-3.25c1-2,2.12-4.06,3.21-6.05a2.42,2.42,0,0,1,4.24,2.33c-1.07,2-2.13,3.94-3.15,5.93A2.43,2.43,0,0,1,1677.19,312.76Zm436.11-6.33a2.43,2.43,0,0,1-2.12-1.25c-1.06-1.93-2.17-3.88-3.3-5.8a2.41,2.41,0,1,1,4.16-2.45c1.16,2,2.29,3.95,3.38,5.92a2.41,2.41,0,0,1-1,3.28A2.35,2.35,0,0,1,2113.3,306.43Zm-429.59-5.55a2.49,2.49,0,0,1-1.22-.33,2.43,2.43,0,0,1-.86-3.31c1.15-1.95,2.34-3.92,3.54-5.85a2.42,2.42,0,1,1,4.1,2.56c-1.18,1.89-2.34,3.82-3.47,5.74A2.43,2.43,0,0,1,1683.71,300.88Zm422.75-6.08a2.42,2.42,0,0,1-2.05-1.14c-1.18-1.89-2.4-3.78-3.63-5.62a2.42,2.42,0,0,1,4-2.67c1.25,1.87,2.49,3.8,3.7,5.73a2.43,2.43,0,0,1-.77,3.33A2.4,2.4,0,0,1,2106.46,294.8Zm-415.58-5.41a2.34,2.34,0,0,1-1.33-.41,2.4,2.4,0,0,1-.68-3.34c1.26-1.9,2.55-3.8,3.85-5.65a2.42,2.42,0,0,1,4,2.77c-1.28,1.82-2.55,3.68-3.78,5.54A2.39,2.39,0,0,1,1690.88,289.39ZM2099,283.54a2.41,2.41,0,0,1-2-1c-1.29-1.82-2.61-3.65-3.93-5.42a2.42,2.42,0,1,1,3.87-2.89c1.35,1.81,2.7,3.67,4,5.52a2.41,2.41,0,0,1-2,3.81Zm-400.32-5.24a2.41,2.41,0,0,1-1.94-3.85c1.35-1.83,2.75-3.65,4.16-5.43a2.41,2.41,0,1,1,3.79,3c-1.37,1.74-2.74,3.54-4.07,5.32A2.41,2.41,0,0,1,1698.67,278.3Zm392.23-5.59a2.38,2.38,0,0,1-1.89-.92c-1.39-1.75-2.81-3.5-4.22-5.2a2.41,2.41,0,1,1,3.71-3.09c1.44,1.72,2.89,3.51,4.3,5.3a2.42,2.42,0,0,1-1.9,3.91Zm-383.86-5a2.42,2.42,0,0,1-1.85-4c1.45-1.75,3-3.49,4.44-5.19a2.42,2.42,0,0,1,3.63,3.2c-1.46,1.66-2.93,3.37-4.36,5.09A2.43,2.43,0,0,1,1707,267.67Zm375.2-5.34a2.41,2.41,0,0,1-1.81-.82c-1.47-1.67-3-3.34-4.5-5a2.42,2.42,0,1,1,3.54-3.29c1.54,1.65,3.08,3.35,4.59,5.06a2.41,2.41,0,0,1-1.82,4ZM1716,257.51a2.42,2.42,0,0,1-1.77-4.06c1.55-1.67,3.14-3.34,4.72-4.94a2.41,2.41,0,1,1,3.45,3.38c-1.55,1.58-3.11,3.21-4.63,4.85A2.4,2.4,0,0,1,1716,257.51ZM2073,252.43a2.43,2.43,0,0,1-1.73-.72c-1.55-1.58-3.15-3.16-4.76-4.71a2.42,2.42,0,1,1,3.36-3.48c1.63,1.57,3.27,3.19,4.85,4.8a2.41,2.41,0,0,1-1.72,4.11Zm-347.57-4.58a2.41,2.41,0,0,1-1.68-4.15c1.63-1.58,3.31-3.15,5-4.68a2.42,2.42,0,0,1,3.26,3.57c-1.64,1.5-3.28,3-4.88,4.58A2.39,2.39,0,0,1,1725.46,247.85Zm337.82-4.8a2.44,2.44,0,0,1-1.63-.63c-1.64-1.5-3.33-3-5-4.45a2.42,2.42,0,1,1,3.16-3.66c1.71,1.48,3.43,3,5.11,4.54a2.41,2.41,0,0,1-1.63,4.2Zm-327.84-4.32a2.41,2.41,0,0,1-1.58-4.24c1.72-1.49,3.47-3,5.22-4.4a2.42,2.42,0,1,1,3.06,3.74c-1.71,1.4-3.44,2.85-5.12,4.31A2.39,2.39,0,0,1,1735.44,238.73ZM2053,234.2a2.39,2.39,0,0,1-1.53-.54c-1.74-1.42-3.5-2.82-5.25-4.17a2.41,2.41,0,1,1,3-3.82c1.79,1.37,3.59,2.8,5.36,4.25a2.41,2.41,0,0,1-1.53,4.28Zm-307.14-4a2.42,2.42,0,0,1-1.48-4.33c1.8-1.39,3.64-2.77,5.46-4.1a2.42,2.42,0,0,1,2.85,3.9c-1.79,1.3-3.59,2.66-5.35,4A2.42,2.42,0,0,1,1745.9,230.17Zm296.42-4.24a2.43,2.43,0,0,1-1.42-.46c-1.81-1.32-3.65-2.63-5.47-3.88a2.42,2.42,0,1,1,2.74-4c1.85,1.28,3.73,2.61,5.57,3.95a2.42,2.42,0,0,1,.53,3.38A2.39,2.39,0,0,1,2042.32,225.93Zm-285.51-3.74a2.42,2.42,0,0,1-1.37-4.41c1.85-1.28,3.76-2.55,5.66-3.79a2.42,2.42,0,0,1,2.64,4c-1.87,1.21-3.74,2.47-5.56,3.72A2.41,2.41,0,0,1,1756.81,222.19Zm274.35-3.94a2.35,2.35,0,0,1-1.31-.39c-1.85-1.2-3.76-2.4-5.68-3.57a2.42,2.42,0,0,1,2.52-4.13c2,1.19,3.9,2.42,5.79,3.65a2.41,2.41,0,0,1-1.32,4.44Zm-263-3.43a2.41,2.41,0,0,1-1.26-4.47c1.92-1.18,3.89-2.35,5.86-3.48a2.41,2.41,0,1,1,2.41,4.18c-1.93,1.12-3.87,2.27-5.75,3.42A2.4,2.4,0,0,1,1768.13,214.82Zm251.47-3.63a2.37,2.37,0,0,1-1.2-.32c-2-1.11-3.92-2.21-5.87-3.26a2.41,2.41,0,0,1,2.29-4.25c2,1.06,4,2.18,6,3.32a2.41,2.41,0,0,1-1.2,4.51Zm-239.77-3.1a2.41,2.41,0,0,1-1.15-4.54c2-1.07,4-2.14,6-3.16a2.42,2.42,0,1,1,2.18,4.32c-2,1-4,2-5.92,3.09A2.39,2.39,0,0,1,1779.83,208.09Zm227.83-3.31a2.45,2.45,0,0,1-1.08-.26c-2-1-4-2-6-2.93a2.42,2.42,0,0,1,2-4.38c2.08,1,4.15,2,6.16,3a2.42,2.42,0,0,1-1.09,4.58ZM1791.88,202a2.41,2.41,0,0,1-1-4.6c2-1,4.12-1.91,6.2-2.82A2.42,2.42,0,0,1,1799,199c-2,.89-4.08,1.82-6.08,2.76A2.41,2.41,0,0,1,1791.88,202Zm203.5-3a2.33,2.33,0,0,1-1-.2c-2-.88-4.11-1.75-6.2-2.59a2.42,2.42,0,0,1,1.81-4.49c2.12.86,4.25,1.75,6.32,2.65a2.42,2.42,0,0,1-1,4.63Zm-191.15-2.41a2.42,2.42,0,0,1-.9-4.66c2.1-.85,4.24-1.69,6.36-2.48a2.42,2.42,0,0,1,1.69,4.53c-2.08.77-4.18,1.59-6.24,2.43A2.42,2.42,0,0,1,1804.23,196.61ZM1982.8,194a2.44,2.44,0,0,1-.84-.15c-2.08-.77-4.21-1.53-6.33-2.25a2.42,2.42,0,1,1,1.55-4.58c2.17.74,4.34,1.51,6.46,2.29a2.42,2.42,0,0,1-.84,4.69Zm-165.89-2.09a2.42,2.42,0,0,1-.79-4.7c2.16-.74,4.34-1.45,6.5-2.12a2.41,2.41,0,0,1,1.44,4.61c-2.12.66-4.26,1.36-6.37,2.08A2.36,2.36,0,0,1,1816.91,191.87Zm153-2.28a2.25,2.25,0,0,1-.72-.11c-2.13-.66-4.29-1.29-6.42-1.89a2.41,2.41,0,0,1,1.29-4.65c2.18.61,4.39,1.25,6.56,1.92a2.42,2.42,0,0,1-.71,4.73Zm-140.13-1.74a2.42,2.42,0,0,1-.65-4.75c2.17-.61,4.4-1.2,6.6-1.76A2.42,2.42,0,0,1,1837,186c-2.16.54-4.34,1.12-6.47,1.72A2.16,2.16,0,0,1,1829.82,187.85Zm127.1-1.89a2.33,2.33,0,0,1-.59-.08c-2.13-.53-4.33-1-6.52-1.53a2.42,2.42,0,1,1,1-4.72c2.24.49,4.48,1,6.65,1.56a2.42,2.42,0,0,1-.58,4.77Zm-114-1.42a2.42,2.42,0,0,1-.53-4.78c2.21-.49,4.46-1,6.69-1.39a2.41,2.41,0,1,1,.92,4.74c-2.18.43-4.39.89-6.55,1.37A2.46,2.46,0,0,1,1842.94,184.54Zm100.77-1.5a2.32,2.32,0,0,1-.46,0c-2.19-.42-4.41-.82-6.6-1.17a2.42,2.42,0,0,1,.78-4.77c2.23.36,4.5.76,6.73,1.19a2.42,2.42,0,0,1-.45,4.79ZM1856.22,182a2.42,2.42,0,0,1-.4-4.8c2.25-.38,4.52-.72,6.76-1a2.42,2.42,0,0,1,.66,4.79c-2.2.3-4.43.64-6.62,1A1.87,1.87,0,0,1,1856.22,182Zm74.13-1.1-.32,0c-2.2-.3-4.44-.57-6.65-.81a2.41,2.41,0,1,1,.51-4.8c2.26.24,4.55.52,6.79.82a2.42,2.42,0,0,1-.33,4.81Zm-60.73-.75a2.42,2.42,0,0,1-.26-4.82c2.24-.24,4.53-.46,6.79-.65a2.41,2.41,0,1,1,.4,4.81c-2.22.19-4.46.41-6.66.65Zm47.28-.69h-.19c-2.2-.18-4.45-.33-6.69-.45a2.41,2.41,0,0,1,.26-4.82c2.28.12,4.57.27,6.81.45a2.42,2.42,0,0,1-.19,4.83Zm-33.8-.42a2.42,2.42,0,0,1-.13-4.83c2.23-.12,4.53-.22,6.82-.29a2.42,2.42,0,1,1,.14,4.84c-2.25.06-4.5.15-6.69.27Zm20.29-.3h-.06c-2.11,0-4.26-.08-6.4-.08h-.3a2.42,2.42,0,1,1,0-4.83h.29c2.2,0,4.39,0,6.53.08a2.42,2.42,0,0,1-.06,4.83Z"/><circle class="cls-23" cx="1896.93" cy="423.16" r="210.77" transform="translate(256.38 1465.27) rotate(-45)"/><path class="cls-24" d="M1896.93,638.77a215.59,215.59,0,1,1,152.46-63.15A214.23,214.23,0,0,1,1896.93,638.77Zm0-421.55c-113.55,0-205.94,92.39-205.94,205.94s92.39,205.94,205.94,205.94,205.94-92.38,205.94-205.94S2010.48,217.22,1896.93,217.22Z"/><circle class="cls-25" cx="1896.93" cy="423.16" r="128.5" transform="translate(256.38 1465.27) rotate(-45)"/><path class="cls-24" d="M1896.93,556.49c-73.52,0-133.33-59.81-133.33-133.33s59.81-133.33,133.33-133.33,133.33,59.81,133.33,133.33S1970.45,556.49,1896.93,556.49Zm0-257a123.66,123.66,0,1,0,123.66,123.66A123.8,123.8,0,0,0,1896.93,299.5Z"/><circle class="cls-26" cx="1896.93" cy="423.16" r="49.78" transform="translate(1044.82 2169.96) rotate(-76.57)"/><path class="cls-24" d="M1896.93,477.78a54.62,54.62,0,1,1,54.62-54.62A54.68,54.68,0,0,1,1896.93,477.78Zm0-99.57a44.95,44.95,0,1,0,45,45A45,45,0,0,0,1896.93,378.21Z"/><rect class="cls-27" x="2068.92" y="74.13" width="9.41" height="356.44" transform="translate(3361.49 1897.04) rotate(-135)"/><path class="cls-28" d="M1949,359c3.82-3.82,21.82,14.18,18,18l-66.76,52.49a2.65,2.65,0,0,1-3.73-3.72Z"/><path class="cls-29" d="M2202.83,129.8l33.91,3.37-46.55,46.55a72,72,0,0,1-58,20.72Z"/><path class="cls-30" d="M2196.17,123.14l-3.37-33.91-46.54,46.55a72,72,0,0,0-20.73,58Z"/><path class="cls-31" d="M609.46,761.39,589,764.45a90.26,90.26,0,0,0-22.42-18.8L566,724.94a1.71,1.71,0,0,0-1.19-1.58l-23.72-7.47a1.71,1.71,0,0,0-1.88.62l-12.33,16.65a90.4,90.4,0,0,0-29.14,2.58l-15.06-14.26a1.69,1.69,0,0,0-2-.27L458.64,732.7a1.74,1.74,0,0,0-.9,1.77l3.07,20.5A90.4,90.4,0,0,0,442,777.39l-20.72.56a1.69,1.69,0,0,0-1.57,1.2l-7.47,23.72a1.71,1.71,0,0,0,.61,1.88l16.66,12.32a90.44,90.44,0,0,0,2.58,29.15l-14.26,15a1.7,1.7,0,0,0-.27,2l11.49,22a1.69,1.69,0,0,0,1.76.9l20.51-3.07a90.26,90.26,0,0,0,22.42,18.81l.56,20.71a1.71,1.71,0,0,0,1.19,1.58l23.72,7.46a1.7,1.7,0,0,0,1.89-.61l12.32-16.65a90.49,90.49,0,0,0,29.15-2.58l15,14.26a1.7,1.7,0,0,0,2,.27l22-11.5a1.7,1.7,0,0,0,.9-1.76l-3.07-20.5a90.44,90.44,0,0,0,18.81-22.42l20.71-.56a1.71,1.71,0,0,0,1.58-1.2L628,844.7a1.71,1.71,0,0,0-.61-1.88L610.76,830.5a90.16,90.16,0,0,0-2.57-29.15l14.25-15.05a1.72,1.72,0,0,0,.28-2l-11.5-22.05A1.68,1.68,0,0,0,609.46,761.39Z"/><path class="cls-3" d="M538.28,839.67a24.1,24.1,0,1,1,6-14.5A24.09,24.09,0,0,1,538.28,839.67ZM505.05,810.6a19.87,19.87,0,0,0-4.92,12,20,20,0,1,0,6.68-13.81A18.47,18.47,0,0,0,505.05,810.6Z"/><path class="cls-31" d="M651.32,794a2,2,0,0,1-1.05.64,2,2,0,0,1-2.46-1.51c-.62-2.59-1.33-5.2-2.12-7.76a2,2,0,0,1,3.91-1.19c.8,2.64,1.54,5.33,2.18,8A2,2,0,0,1,651.32,794Z"/><path class="cls-31" d="M624.84,909.59a2,2,0,0,1-3.11-2.64,133.64,133.64,0,0,0,9-12.42,2,2,0,0,1,3.44,2.2,135.79,135.79,0,0,1-9.31,12.81Zm-17.82,18a2.39,2.39,0,0,1-.23.22,135.57,135.57,0,0,1-12.72,9.41,2,2,0,1,1-2.24-3.41,133.81,133.81,0,0,0,12.35-9.13,2,2,0,0,1,2.84,2.91Zm38.54-53.1a2,2,0,0,1-3.43-2.11A130.83,130.83,0,0,0,647,857.78a2,2,0,1,1,3.94,1.05,134.89,134.89,0,0,1-5,15A2.31,2.31,0,0,1,645.56,874.46ZM572.08,948.6a2,2,0,0,1-.76.54,134.27,134.27,0,0,1-15,5.13,2,2,0,0,1-1.09-3.94,130.73,130.73,0,0,0,14.52-5,2,2,0,0,1,2.31,3.23Zm82.56-113.92a2,2,0,0,1-3.58-1.49q.08-.91.12-1.83a132.79,132.79,0,0,0,.09-13.53,2,2,0,0,1,4.08-.18,135.28,135.28,0,0,1-.09,14l-.12,1.88A2.07,2.07,0,0,1,654.64,834.68ZM532.41,958.05a2,2,0,0,1-1.37.69,136.78,136.78,0,0,1-15.82.34,2,2,0,1,1,.14-4.08,135.32,135.32,0,0,0,15.35-.33,2,2,0,0,1,1.7,3.38Zm-40.68-3a2,2,0,0,1-2,.64,135,135,0,0,1-15.2-4.43,2,2,0,0,1,1.37-3.85,131.61,131.61,0,0,0,14.74,4.3,2,2,0,0,1,1.53,2.45A2.15,2.15,0,0,1,491.73,955.09Z"/><path class="cls-31" d="M453.78,939.93a2.06,2.06,0,0,1-2.58.41c-2.36-1.4-4.71-2.9-7-4.44a2,2,0,1,1,2.29-3.38c2.21,1.5,4.5,3,6.78,4.3a2.05,2.05,0,0,1,.72,2.8A3.46,3.46,0,0,1,453.78,939.93Z"/><path class="cls-31" d="M391.3,853.25a2,2,0,0,1-3.53-.92c-.58-2.69-1.08-5.44-1.49-8.16a2,2,0,0,1,4-.61c.4,2.64.89,5.3,1.45,7.91A2.05,2.05,0,0,1,391.3,853.25Z"/><path class="cls-31" d="M572.71,702a2,2,0,0,1-2.31.54,130.85,130.85,0,0,0-14.27-5,2,2,0,0,1,1.12-3.93A136.11,136.11,0,0,1,572,698.72a2,2,0,0,1,1.1,2.67A1.71,1.71,0,0,1,572.71,702Zm-39-9.57a2,2,0,0,1-1.72.69c-1.44-.13-2.88-.24-4.34-.33-3.58-.2-7.2-.26-10.76-.18a2,2,0,0,1-.09-4.08c3.67-.09,7.4,0,11.09.19q2.25.14,4.47.33a2,2,0,0,1,1.35,3.38Zm-145.31,128a2,2,0,0,1-3.58-1.42c0-1,.08-1.95.14-2.92.24-4.2.68-8.44,1.31-12.58a2,2,0,1,1,4,.61c-.61,4-1,8.13-1.27,12.21-.06.94-.1,1.89-.14,2.83A2,2,0,0,1,388.43,820.35ZM493.68,694.77a2,2,0,0,1-1.1.65,129.69,129.69,0,0,0-14.56,4,2,2,0,0,1-1.31-3.87,137.85,137.85,0,0,1,15-4.14,2.05,2.05,0,0,1,2.43,1.57A2,2,0,0,1,493.68,694.77Zm-97.82,86.14a2,2,0,0,1-3.46-2,132.79,132.79,0,0,1,6-14.37,2,2,0,0,1,3.67,1.79,128.71,128.71,0,0,0-5.82,13.93A1.94,1.94,0,0,1,395.86,780.91ZM456.18,709a2,2,0,0,1-.53.43A133.14,133.14,0,0,0,443,717.6a2,2,0,0,1-2.4-3.3,135.45,135.45,0,0,1,13.09-8.42,2,2,0,0,1,2.54,3.12Zm-41.45,36.5a2,2,0,0,1-3.17-2.57c2.12-2.84,4.39-5.64,6.73-8.31l0,0c1.06-1.22,2.15-2.41,3.25-3.58a2.05,2.05,0,0,1,2.89-.09,2.08,2.08,0,0,1,.09,2.89c-1.08,1.15-2.19,2.33-3.19,3.5-2.27,2.59-4.47,5.3-6.53,8.06A1.47,1.47,0,0,1,414.73,745.5Z"/><path class="cls-31" d="M601.46,718.34a2.05,2.05,0,0,1-2.76.29c-2.14-1.61-4.35-3.16-6.57-4.62a2,2,0,1,1,2.24-3.41c2.29,1.5,4.57,3.1,6.78,4.76a2,2,0,0,1,.41,2.85A.64.64,0,0,1,601.46,718.34Z"/><path class="cls-3" d="M566.39,864.93a62.05,62.05,0,1,1-28.07-100q2.14.68,4.23,1.5a62.28,62.28,0,0,1,7,3.26l.91.51a2.08,2.08,0,0,1,.34.24,2,2,0,0,1-2.36,3.31,58,58,0,0,0-77.15,18.5,57.84,57.84,0,0,0-6.48,13.31c-.07.2-.14.4-.2.6l-.18.56a58,58,0,1,0,111.69,3.94,2,2,0,0,1,3.33-2,2,2,0,0,1,.64,1.06,62.13,62.13,0,0,1-13.67,55.27Z"/><rect class="cls-32" x="581.94" y="350.11" width="579.12" height="601.96" rx="43.37"/><rect class="cls-3" x="609.84" y="367.75" width="524.33" height="568.38" rx="43.37"/><rect class="cls-4" x="627.47" y="383.71" width="346.03" height="36.07" rx="16.53"/><path class="cls-33" d="M1005.31,416.14c-8.14,0-14.76-6.23-14.76-13.9s6.62-13.91,14.76-13.91,14.76,6.24,14.76,13.91S1013.45,416.14,1005.31,416.14Zm0-23.94c-6,0-10.89,4.5-10.89,10s4.88,10,10.89,10,10.89-4.51,10.89-10S1011.32,392.2,1005.31,392.2Z"/><path class="cls-34" d="M1055.27,416.14c-8.14,0-14.76-6.23-14.76-13.9s6.62-13.91,14.76-13.91,14.76,6.24,14.76,13.91S1063.41,416.14,1055.27,416.14Zm0-23.94c-6,0-10.9,4.5-10.9,10s4.89,10,10.9,10,10.89-4.51,10.89-10S1061.27,392.2,1055.27,392.2Z"/><path class="cls-35" d="M1105.23,416.14c-8.14,0-14.76-6.23-14.76-13.9s6.62-13.91,14.76-13.91,14.76,6.24,14.76,13.91S1113.36,416.14,1105.23,416.14Zm0-23.94c-6,0-10.9,4.5-10.9,10s4.89,10,10.9,10,10.89-4.51,10.89-10S1111.23,392.2,1105.23,392.2Z"/><path class="cls-15" d="M954.3,409.68H647.19a7.59,7.59,0,0,1,0-15.18H954.3a7.59,7.59,0,0,1,0,15.18Z"/><path class="cls-36" d="M645.6,420.8l-34.71,35.34a3.56,3.56,0,0,0,.25,5.23l.26.22a3.31,3.31,0,0,0,4.68-.43l31.78-38.33Z"/><ellipse class="cls-37" cx="660.52" cy="402.39" rx="22.98" ry="22.56" transform="translate(-108.91 323.75) rotate(-25.51)"/><path class="cls-38" d="M649.7,379.73a25.11,25.11,0,1,0,33.89,11.65A25.34,25.34,0,0,0,649.7,379.73Zm20,42A21.42,21.42,0,1,1,680.2,393,21.62,21.62,0,0,1,669.74,421.72Z"/><rect class="cls-31" x="638.2" y="727.84" width="329.14" height="187.56" rx="25.14"/><path class="cls-39" d="M950,762.46H666.1a8.86,8.86,0,0,1,0-17.72H950a8.86,8.86,0,1,1,0,17.72Z"/><path class="cls-40" d="M949.72,796.29H665.84a8.86,8.86,0,1,1,0-17.72H949.72a8.86,8.86,0,1,1,0,17.72Z"/><path class="cls-41" d="M950.55,832.26H666.67a8.86,8.86,0,0,1,0-17.72H950.55a8.86,8.86,0,1,1,0,17.72Z"/><path class="cls-42" d="M950.29,866.09H666.41a8.86,8.86,0,1,1,0-17.72H950.29a8.86,8.86,0,0,1,0,17.72Z"/><path class="cls-43" d="M949.84,897H666a8.87,8.87,0,0,1,0-17.73H949.84a8.87,8.87,0,1,1,0,17.73Z"/><rect class="cls-4" x="978.49" y="446.35" width="138.67" height="188.09" rx="20.11"/><rect class="cls-4" x="978.49" y="651.09" width="138.67" height="264.3" rx="20.11"/><path class="cls-44" d="M946.68,716.08H664.54a8.87,8.87,0,0,1,0-17.73H946.68a8.87,8.87,0,0,1,0,17.73Z"/><rect class="cls-45" x="650.85" y="446.35" width="304.69" height="236.82" rx="25.43"/><path class="cls-46" d="M699.51,647.74H889.79a7.66,7.66,0,0,0,6.6-11.54L821.06,508.13a7.66,7.66,0,0,0-13.57.71l-36.37,79.7A7.67,7.67,0,0,1,759,591l-14.71-13.49a7.65,7.65,0,0,0-11.46,1.27l-39.58,56.92A7.66,7.66,0,0,0,699.51,647.74Z"/><circle class="cls-47" cx="887.2" cy="504.27" r="27.35" transform="translate(-125.44 377.9) rotate(-22.5)"/><rect class="cls-48" x="827.47" y="546.35" width="579.12" height="601.96" rx="43.37"/><rect class="cls-4" x="855.36" y="563.98" width="524.33" height="568.38" rx="43.37"/><rect class="cls-15" x="873" y="579.94" width="346.02" height="36.07" rx="16.53"/><path class="cls-49" d="M1250.84,612.37c-8.14,0-14.76-6.23-14.76-13.9s6.62-13.91,14.76-13.91,14.76,6.24,14.76,13.91S1259,612.37,1250.84,612.37Zm0-23.94c-6,0-10.89,4.5-10.89,10s4.88,10,10.89,10,10.89-4.51,10.89-10S1256.85,588.43,1250.84,588.43Z"/><path class="cls-50" d="M1300.8,612.37c-8.14,0-14.76-6.23-14.76-13.9s6.62-13.91,14.76-13.91,14.76,6.24,14.76,13.91S1308.94,612.37,1300.8,612.37Zm0-23.94c-6,0-10.9,4.5-10.9,10s4.89,10,10.9,10,10.89-4.51,10.89-10S1306.8,588.43,1300.8,588.43Z"/><path class="cls-51" d="M1350.76,612.37c-8.14,0-14.76-6.23-14.76-13.9s6.62-13.91,14.76-13.91,14.76,6.24,14.76,13.91S1358.89,612.37,1350.76,612.37Zm0-23.94c-6,0-10.9,4.5-10.9,10s4.89,10,10.9,10,10.89-4.51,10.89-10S1356.76,588.43,1350.76,588.43Z"/><path class="cls-15" d="M1199.83,605.91H892.72a7.59,7.59,0,0,1,0-15.18h307.11a7.59,7.59,0,0,1,0,15.18Z"/><path class="cls-52" d="M891.13,617l-34.71,35.34a3.56,3.56,0,0,0,.25,5.23l.26.22a3.31,3.31,0,0,0,4.68-.43l31.78-38.33Z"/><path class="cls-53" d="M926.78,588.72a23,23,0,1,1-30.45-10.46A22.76,22.76,0,0,1,926.78,588.72Z"/><path class="cls-54" d="M895.23,576a25.11,25.11,0,1,0,33.89,11.65A25.34,25.34,0,0,0,895.23,576Zm20,42a21.42,21.42,0,1,1,10.46-28.72A21.62,21.62,0,0,1,915.27,618Z"/><path class="cls-31" d="M1307.43,716.08H927.63a8.87,8.87,0,0,1,0-17.73h379.8a8.87,8.87,0,0,1,0,17.73Z"/><path class="cls-31" d="M1262.41,682.11H965.65a8.86,8.86,0,0,1,0-17.72h296.76a8.86,8.86,0,1,1,0,17.72Z"/><rect class="cls-3" x="883.13" y="739.23" width="224.36" height="355.94" rx="25.14"/><path class="cls-21" d="M1085.7,773.7h-182a8.86,8.86,0,1,1,0-17.72h182a8.86,8.86,0,0,1,0,17.72Z"/><path class="cls-21" d="M1085.52,807.53h-182a8.86,8.86,0,1,1,0-17.72h182a8.86,8.86,0,1,1,0,17.72Z"/><path class="cls-21" d="M1086.07,843.5h-182a8.86,8.86,0,0,1,0-17.72h182a8.86,8.86,0,1,1,0,17.72Z"/><path class="cls-21" d="M1085.9,877.33h-182a8.86,8.86,0,1,1,0-17.72h182a8.86,8.86,0,0,1,0,17.72Z"/><path class="cls-21" d="M1085.6,908.26h-182a8.86,8.86,0,0,1,0-17.72h182a8.86,8.86,0,1,1,0,17.72Z"/><path class="cls-21" d="M1085.43,942.1h-182a8.87,8.87,0,0,1,0-17.73h182a8.87,8.87,0,0,1,0,17.73Z"/><path class="cls-21" d="M1086,978.06H904a8.86,8.86,0,0,1,0-17.72h182a8.86,8.86,0,0,1,0,17.72Z"/><path class="cls-21" d="M1085.8,1011.9h-182a8.86,8.86,0,0,1,0-17.72h182a8.86,8.86,0,1,1,0,17.72Z"/><path class="cls-21" d="M1085.43,1043.87h-182a8.86,8.86,0,0,1,0-17.72h182a8.86,8.86,0,0,1,0,17.72Z"/><path class="cls-21" d="M1086,1079.84H904a8.86,8.86,0,1,1,0-17.72h182a8.86,8.86,0,0,1,0,17.72Z"/><rect class="cls-3" x="1126.73" y="737.3" width="224.36" height="355.94" rx="25.14"/><g class="cls-55"><path class="cls-21" d="M1329.29,771.76h-182a8.86,8.86,0,1,1,0-17.72h182a8.86,8.86,0,1,1,0,17.72Z"/><path class="cls-21" d="M1329.12,805.6h-182a8.87,8.87,0,0,1,0-17.73h182a8.87,8.87,0,0,1,0,17.73Z"/><path class="cls-21" d="M1329.67,841.56h-182a8.86,8.86,0,0,1,0-17.72h182a8.86,8.86,0,0,1,0,17.72Z"/><path class="cls-21" d="M1329.49,875.4h-182a8.86,8.86,0,1,1,0-17.72h182a8.86,8.86,0,1,1,0,17.72Z"/><path class="cls-21" d="M1329.2,906.33h-182a8.86,8.86,0,1,1,0-17.72h182a8.86,8.86,0,0,1,0,17.72Z"/><path class="cls-21" d="M1329,940.16h-182a8.86,8.86,0,1,1,0-17.72h182a8.86,8.86,0,1,1,0,17.72Z"/><path class="cls-21" d="M1329.57,976.13h-182a8.86,8.86,0,1,1,0-17.72h182a8.86,8.86,0,1,1,0,17.72Z"/><path class="cls-21" d="M1329.4,1010h-182a8.86,8.86,0,0,1,0-17.72h182a8.86,8.86,0,0,1,0,17.72Z"/><path class="cls-21" d="M1329,1041.94h-182a8.87,8.87,0,0,1,0-17.73h182a8.87,8.87,0,0,1,0,17.73Z"/><path class="cls-21" d="M1329.57,1077.9h-182a8.86,8.86,0,1,1,0-17.72h182a8.86,8.86,0,1,1,0,17.72Z"/></g><rect class="cls-56" x="1155.16" y="697.14" width="579.12" height="611.18" rx="43.37"/><rect class="cls-3" x="1183.06" y="715.05" width="524.33" height="577.09" rx="43.37"/><rect class="cls-57" x="1221.62" y="814.64" width="304.69" height="236.82" rx="25.43"/><path class="cls-58" d="M1270.28,1016h190.28a7.65,7.65,0,0,0,6.6-11.54l-75.33-128.06a7.66,7.66,0,0,0-13.57.7l-36.37,79.7a7.65,7.65,0,0,1-12.14,2.47L1315,945.81a7.66,7.66,0,0,0-11.46,1.28L1264,1004A7.66,7.66,0,0,0,1270.28,1016Z"/><circle class="cls-59" cx="1457.98" cy="872.56" r="27.35" transform="translate(-222.93 624.36) rotate(-22.5)"/><rect class="cls-15" x="1200.69" y="730.74" width="346.03" height="36.07" rx="16.53"/><path class="cls-60" d="M1578.54,763.17c-8.14,0-14.77-6.24-14.77-13.9s6.63-13.91,14.77-13.91,14.76,6.24,14.76,13.91S1586.67,763.17,1578.54,763.17Zm0-23.94c-6,0-10.9,4.5-10.9,10s4.89,10,10.9,10,10.89-4.51,10.89-10S1584.54,739.23,1578.54,739.23Z"/><path class="cls-61" d="M1628.49,763.17c-8.14,0-14.76-6.24-14.76-13.9s6.62-13.91,14.76-13.91,14.76,6.24,14.76,13.91S1636.63,763.17,1628.49,763.17Zm0-23.94c-6,0-10.89,4.5-10.89,10s4.89,10,10.89,10,10.9-4.51,10.9-10S1634.5,739.23,1628.49,739.23Z"/><path class="cls-62" d="M1678.45,763.17c-8.14,0-14.76-6.24-14.76-13.9s6.62-13.91,14.76-13.91,14.76,6.24,14.76,13.91S1686.59,763.17,1678.45,763.17Zm0-23.94c-6,0-10.89,4.5-10.89,10s4.88,10,10.89,10,10.9-4.51,10.9-10S1684.46,739.23,1678.45,739.23Z"/><path class="cls-15" d="M1527.52,756.71H1220.41a7.59,7.59,0,0,1,0-15.18h307.11a7.59,7.59,0,0,1,0,15.18Z"/><path class="cls-63" d="M1218.82,767.83l-34.71,35.34a3.57,3.57,0,0,0,.25,5.23l.26.21a3.3,3.3,0,0,0,4.68-.42l31.79-38.33Z"/><ellipse class="cls-64" cx="1233.74" cy="749.42" rx="22.98" ry="22.56" transform="translate(-202.48 604.5) rotate(-25.51)"/><path class="cls-65" d="M1222.93,726.76a25.11,25.11,0,1,0,33.89,11.65A25.33,25.33,0,0,0,1222.93,726.76Zm20,42A21.42,21.42,0,1,1,1253.43,740,21.61,21.61,0,0,1,1243,768.75Z"/><path class="cls-31" d="M1517.45,1093.23h-287a8.86,8.86,0,1,1,0-17.72h287a8.86,8.86,0,0,1,0,17.72Z"/><path class="cls-31" d="M1517.19,1127.06h-287a8.86,8.86,0,0,1,0-17.72h287a8.86,8.86,0,0,1,0,17.72Z"/><rect class="cls-4" x="1221.36" y="1145.43" width="304.69" height="129.53" rx="20.11"/><rect class="cls-15" x="1545.46" y="814.64" width="145.82" height="155.83" rx="20.11"/><rect class="cls-15" x="1545.46" y="1005.94" width="145.82" height="155.83" rx="20.11"/><rect class="cls-15" x="1545.46" y="1173.46" width="145.82" height="101.5" rx="20.11"/><path class="cls-15" d="M1683.77,995.21H1553a7.51,7.51,0,1,1,0-15h130.8a7.51,7.51,0,1,1,0,15Z"/><rect class="cls-66" x="1528.29" y="883.71" width="579.12" height="611.18" rx="43.37"/><rect class="cls-4" x="1556.19" y="901.62" width="524.33" height="577.09" rx="43.37"/><rect class="cls-67" x="1611.18" y="1001.2" width="419.7" height="236.82" rx="25.43"/><rect class="cls-68" x="1573.82" y="917.3" width="346.02" height="36.07" rx="16.53"/><path class="cls-69" d="M1951.66,949.74c-8.14,0-14.76-6.24-14.76-13.91s6.62-13.91,14.76-13.91,14.76,6.24,14.76,13.91S1959.8,949.74,1951.66,949.74Zm0-24c-6,0-10.89,4.5-10.89,10s4.89,10,10.89,10,10.9-4.5,10.9-10S1957.67,925.79,1951.66,925.79Z"/><path class="cls-70" d="M2001.62,949.74c-8.14,0-14.76-6.24-14.76-13.91s6.62-13.91,14.76-13.91,14.76,6.24,14.76,13.91S2009.76,949.74,2001.62,949.74Zm0-24c-6,0-10.89,4.5-10.89,10s4.88,10,10.89,10,10.9-4.5,10.9-10S2007.63,925.79,2001.62,925.79Z"/><path class="cls-71" d="M2051.58,949.74c-8.14,0-14.76-6.24-14.76-13.91s6.62-13.91,14.76-13.91,14.76,6.24,14.76,13.91S2059.72,949.74,2051.58,949.74Zm0-24c-6,0-10.89,4.5-10.89,10s4.88,10,10.89,10,10.89-4.5,10.89-10S2057.59,925.79,2051.58,925.79Z"/><path class="cls-15" d="M1900.65,943.27H1593.54a7.59,7.59,0,1,1,0-15.18h307.11a7.59,7.59,0,0,1,0,15.18Z"/><path class="cls-72" d="M1592,954.4l-34.71,35.33a3.57,3.57,0,0,0,.25,5.23l.26.22a3.32,3.32,0,0,0,4.68-.42l31.79-38.34Z"/><path class="cls-73" d="M1627.61,926.09a23,23,0,1,1-30.46-10.47A22.79,22.79,0,0,1,1627.61,926.09Z"/><path class="cls-74" d="M1596.06,913.32A25.11,25.11,0,1,0,1629.94,925,25.34,25.34,0,0,0,1596.06,913.32Zm20,42a21.42,21.42,0,1,1,10.46-28.72A21.63,21.63,0,0,1,1616.1,955.31Z"/><path class="cls-31" d="M2033.06,1279.8H1606.63a8.87,8.87,0,0,1,0-17.73h426.43a8.87,8.87,0,0,1,0,17.73Z"/><path class="cls-31" d="M2032.67,1313.63H1606.25a8.86,8.86,0,1,1,0-17.72h426.42a8.86,8.86,0,0,1,0,17.72Z"/><rect class="cls-75" x="1582.89" y="1331.99" width="304.69" height="129.53" rx="20.11"/><rect class="cls-76" x="1906.99" y="1331.99" width="145.82" height="129.53" rx="20.11"/><path class="cls-77" d="M1874.28,1119.61a50,50,0,1,1-50-50A50,50,0,0,1,1874.28,1119.61Zm-3,0a47,47,0,1,0-47,47A47,47,0,0,0,1871.25,1119.61Z"/><path class="cls-78" d="M1810.11,1145.38a2.59,2.59,0,0,1-2.59-2.53l-1.19-44.27a4.18,4.18,0,0,1,6-3.9l43.73,20.46a4.17,4.17,0,0,1,.19,7.47l-38.6,20.58a2.59,2.59,0,0,1-2.44-4.58L1852,1119l-40.42-18.9,1.15,42.63a2.62,2.62,0,0,1-2.53,2.67Z"/><path class="cls-79" d="M1142.87,1055.82,681.93,1497.45a45.94,45.94,0,0,0,1.18,67.43l3.28,2.92a42.7,42.7,0,0,0,60.47-3.6l424.4-481.4Z"/><ellipse class="cls-80" cx="1342.25" cy="824.48" rx="296.12" ry="290.78" transform="translate(-218.48 611.11) rotate(-23.78)"/><path class="cls-81" d="M1211.81,528.38c-166.54,73.37-243.14,265.41-171.1,428.94s265.44,236.63,432,163.26,243.14-265.4,171.1-428.94S1378.34,455,1211.81,528.38Zm241.72,548.71c-142.07,62.58-307.07.23-368.53-139.28s3.9-303.35,146-365.93,307.06-.23,368.52,139.28S1595.6,1014.5,1453.53,1077.09Z"/><path class="cls-4" d="M1079.12,983a1.21,1.21,0,0,1-1.24-.55c-4-6.61-7.73-13.45-11.18-20.34a1.19,1.19,0,0,1,2.12-1.06c3.42,6.84,7.15,13.62,11.1,20.17a1.19,1.19,0,0,1-.41,1.63A1.17,1.17,0,0,1,1079.12,983Zm-34.41-83.71a1.18,1.18,0,0,1-1.37-.88,297.71,297.71,0,0,1-8.23-62.63,303.42,303.42,0,0,1,47.16-169.5,313,313,0,0,1,308.45-142.1,1.2,1.2,0,0,1,1,1.35,1.19,1.19,0,0,1-1.35,1,308.79,308.79,0,0,0-169.13,23.25c-114.59,50.49-186.72,162.72-183.77,285.95a294.85,294.85,0,0,0,8.17,62.12,1.19,1.19,0,0,1-.88,1.43Z"/><path class="cls-4" d="M723.88,1564l-.12,0c-19.38,1.59-32.43-4.13-38.78-17s-3.49-28.91,7.24-39.67l54.58-54.73a1.18,1.18,0,1,1,1.68,1.67L693.89,1509c-10,10-12.73,24.88-6.79,36.94s18.15,17.21,36.47,15.7a1.19,1.19,0,0,1,.31,2.35Z"/><path class="cls-4" d="M764.68,1437.72a1.18,1.18,0,0,1-1-2l7.07-7.1a1.19,1.19,0,0,1,1.68,1.68l-7.07,7.09A1.17,1.17,0,0,1,764.68,1437.72Z"/></g></svg>