<svg data-v-7d32def8="" version="1.0" xmlns="http://www.w3.org/2000/svg" preserveAspectRatio="xMidYMid meet" color-interpolation-filters="sRGB" xmlns:xlink="http://www.w3.org/1999/xlink" viewBox="0 0 370 260" width="100%" height="100%"><rect x="0" y="0" width="100%" height="100%" fill="transparent" rx="6" ry="6"></rect><rect x="0" y="0" width="100%" height="100%" fill="url(#watermark)" rx="6" ry="6" fill-opacity=".03"></rect><filter id="colorMatrixDefault"><feColorMatrix in="SourceGraphic" type="matrix" values=" 1 0 0 0 0 0 1 0 0 0 0 0 1 0 0 0 0 0 1 0"></feColorMatrix></filter><filter id="colorMatrixWhite"><feColorMatrix in="SourceGraphic" type="matrix" values="0 0 0 0 0.99609375  0 0 0 0 0.99609375  0 0 0 0 0.99609375  0 0 0 1 0"></feColorMatrix></filter><filter id="colorMatrixRed"><feColorMatrix in="SourceGraphic" type="matrix" values="0 0 0 0 0.765625  0 0 0 0 0.109375  0 0 0 0 0.09765625  0 0 0 1 0"></feColorMatrix></filter><filter id="colorMatrixGold"><feColorMatrix in="SourceGraphic" type="matrix" values="0 0 0 0 0.734375  0 0 0 0 0.609375  0 0 0 0 0.375  0 0 0 1 0"></feColorMatrix></filter><filter id="1"><feColorMatrix in="SourceGraphic" type="matrix" values=""></feColorMatrix></filter><filter id="2"><feColorMatrix in="SourceGraphic" type="matrix" values=""></feColorMatrix></filter><filter id="3"><feColorMatrix in="SourceGraphic" type="matrix" values=""></feColorMatrix></filter><defs><clipPath id="textClip"><rect x="0" y="40" width="200" height="30"></rect><rect x="0" y="80" width="200" height="30"></rect><rect x="0" y="90" width="200" height="90"></rect></clipPath><filter id="logoIconColor" filterUnits="userSpaceOnUse" x="0" y="0" width="200" height="120"></filter><filter id="logoIconBackgroundColor" filterUnits="userSpaceOnUse" x="0" y="0" width="200" height="120"></filter></defs><g transform="translate(0,0)" class="logo-group"><g transform="translate(74.05999755859375,90)" class="logo-icon"><svg version="1.0" xmlns="http://www.w3.org/2000/svg" preserveAspectRatio="xMidYMid meet" color-interpolation-filters="sRGB" xmlns:xlink="http://www.w3.org/1999/xlink" width="80" height="80"><svg xmlns="http://www.w3.org/2000/svg" xmlns:xlink="http://www.w3.org/1999/xlink" viewBox="0 0 500 500"><defs><linearGradient id="ae4572a6-082e-4e70-9cb1-6f14b9db579a" x1="226.75" y1="-16.5" x2="226.75" y2="499.07" gradientUnits="userSpaceOnUse"><stop offset="0" stop-color="#fec4ff"></stop><stop offset="1" stop-color="#cc2f9f"></stop></linearGradient><linearGradient id="f8022b42-d49e-44af-b6fd-ef26659857e4" x1="251.94" y1="47.84" x2="251.94" y2="506.04" gradientUnits="userSpaceOnUse"><stop offset="0" stop-color="#88effc"></stop><stop offset="1" stop-color="#28acbf"></stop></linearGradient></defs><title>美容美发</title><g style="isolation:isolate"><g id="0ab3f8db-fc4d-487f-aa18-583297f96aa6" data-name="图层 1"><path d="M128,222.41c4,35.24-38,80.19-33.56,89.23,5.19,10.62,27.62,10.21,28.57,21.06s-4.78,14.16-4.49,20.14c.36,7.39,13.42,7.52,13.42,7.52s-9.27,5-8.65,10.77c.82,7.57,16.36,5.28,17.22,18.94,5.48,86.84,100.32-56.79,195.84,70.18,0,0,46.28-101.5-15.34-156.37-50.89-45.32-89.57-18.58-89.57-18.58s-3.69-23,35.55-29.46c63.85-10.48,82.2-100.35,60.37-142.47-43-82.9,32-113.85,32-113.85C161.07,14.85,114.21,101.09,128,222.41Z" fill="url(#ae4572a6-082e-4e70-9cb1-6f14b9db579a)" style="mix-blend-mode:multiply"></path><path d="M143,229.59c-2.18,35.4-51.31,72.37-48.54,82,3.27,11.36,25.43,14.85,24.48,25.7s-7.17,13.12-7.92,19.05c-.93,7.34,11.91,9.74,11.91,9.74s-10,3.28-10.38,9.1c-.51,7.6,15.19,8,13.66,21.65C116.5,483.35,234.84,358.37,306.86,500c0,0,63.2-91.92,12.05-156.65-42.25-53.48-85-33.86-85-33.86s.37-23.31,40.13-22.84c64.7.77,98.38-84.55,84.19-129.82C330.29,67.72,409.57,50.27,409.57,50.27,211.59,30.92,150.47,107.73,143,229.59Z" fill="url(#f8022b42-d49e-44af-b6fd-ef26659857e4)" style="mix-blend-mode:multiply"></path></g></g></svg></svg></g><g transform="translate(164.05999755859375,114.99499988555908)" class="logo-text"><path d="M5.07 25.77L0.09 25.77L8.37 5.76L13.26 5.76L21.54 25.77L16.56 25.77L14.61 21.15L7.02 21.15L5.07 25.77ZM13.68 17.58L10.83 10.59L7.98 17.58L13.68 17.58ZM27.63 5.76L27.63 11.16L31.17 11.16Q33.51 11.16 34.98 11.88L34.98 11.88Q36.99 12.87 37.89 14.91L37.89 14.91Q38.52 16.44 38.52 18.27L38.52 18.27Q38.52 22.71 35.31 24.69L35.31 24.69Q34.29 25.32 33.21 25.54Q32.13 25.77 30.15 25.77L30.15 25.77L23.61 25.77L23.61 5.76L27.63 5.76ZM30.60 14.28L27.63 14.28L27.63 22.65L30.60 22.65Q32.49 22.65 33.45 21.48L33.45 21.48Q34.41 20.22 34.41 18.39L34.41 18.39Q34.41 14.28 30.60 14.28L30.60 14.28ZM41.49 25.77L41.49 11.16L49.23 11.16Q50.97 11.16 51.88 11.42Q52.80 11.67 53.55 12.33L53.55 12.33Q55.08 13.74 55.08 16.77L55.08 16.77L55.08 25.77L51.06 25.77L51.06 16.32Q51.06 15.24 50.58 14.76Q50.10 14.28 48.99 14.28L48.99 14.28L45.51 14.28L45.51 25.77L41.49 25.77ZM62.31 16.89L70.77 16.89L70.77 20.01L62.31 20.01Q62.43 21.45 63.24 22.05Q64.05 22.65 65.88 22.65L65.88 22.65L70.77 22.65L70.77 25.77L65.43 25.77Q63.69 25.77 62.59 25.45Q61.50 25.14 60.54 24.42L60.54 24.42Q57.87 22.35 57.87 18.27L57.87 18.27Q57.87 15.63 59.28 13.65L59.28 13.65Q60.24 12.30 61.59 11.73Q62.94 11.16 65.13 11.16L65.13 11.16L70.77 11.16L70.77 14.28L65.43 14.28Q63.78 14.28 63.12 14.84Q62.46 15.39 62.31 16.89L62.31 16.89ZM74.04 25.77L74.04 11.16L79.98 11.16Q81.81 11.16 82.81 11.42Q83.82 11.67 84.48 12.27L84.48 12.27Q85.14 12.87 85.41 13.77Q85.68 14.67 85.68 16.35L85.68 16.35L85.68 17.76L81.81 17.76L81.81 16.98Q81.81 15.42 81.27 14.85Q80.73 14.28 79.20 14.28L79.20 14.28L78.06 14.28L78.06 25.77L74.04 25.77ZM94.29 22.65L96.45 22.65L96.45 11.16L100.47 11.16L100.47 22.65L104.79 22.65L104.79 11.16L108.78 11.16L108.78 25.77L94.02 25.77Q92.01 25.77 90.96 25.47Q89.91 25.17 89.22 24.42L89.22 24.42Q87.90 22.98 87.90 20.46L87.90 20.46L87.90 11.16L91.89 11.16L91.89 19.83Q91.89 20.88 91.99 21.30Q92.10 21.72 92.40 22.05L92.40 22.05Q93.03 22.65 94.29 22.65L94.29 22.65ZM116.22 16.89L124.68 16.89L124.68 20.01L116.22 20.01Q116.34 21.45 117.15 22.05Q117.96 22.65 119.79 22.65L119.79 22.65L124.68 22.65L124.68 25.77L119.34 25.77Q117.60 25.77 116.50 25.45Q115.41 25.14 114.45 24.42L114.45 24.42Q111.78 22.35 111.78 18.27L111.78 18.27Q111.78 15.63 113.19 13.65L113.19 13.65Q114.15 12.30 115.50 11.73Q116.85 11.16 119.04 11.16L119.04 11.16L124.68 11.16L124.68 14.28L119.34 14.28Q117.69 14.28 117.03 14.84Q116.37 15.39 116.22 16.89L116.22 16.89ZM127.95 25.77L127.95 11.16L131.97 11.16L131.97 25.77L127.95 25.77ZM131.97 9.66L127.95 9.66L127.95 5.76L131.97 5.76L131.97 9.66Z" fill="#333"></path></g><g transform="translate(164.05999755859375,145.00500011444092)" class="logo-slug"><path d="" fill="#333"></path></g></g></svg>