<svg data-v-7d32def8="" version="1.0" xmlns="http://www.w3.org/2000/svg" preserveAspectRatio="xMidYMid meet" color-interpolation-filters="sRGB" xmlns:xlink="http://www.w3.org/1999/xlink" viewBox="0 0 370 260" width="100%" height="100%"><rect x="0" y="0" width="100%" height="100%" fill="transparent" rx="6" ry="6"></rect><rect x="0" y="0" width="100%" height="100%" fill="url(#watermark)" rx="6" ry="6" fill-opacity=".03"></rect><filter id="colorMatrixDefault"><feColorMatrix in="SourceGraphic" type="matrix" values=" 1 0 0 0 0 0 1 0 0 0 0 0 1 0 0 0 0 0 1 0"></feColorMatrix></filter><filter id="colorMatrixWhite"><feColorMatrix in="SourceGraphic" type="matrix" values="0 0 0 0 0.99609375  0 0 0 0 0.99609375  0 0 0 0 0.99609375  0 0 0 1 0"></feColorMatrix></filter><filter id="colorMatrixRed"><feColorMatrix in="SourceGraphic" type="matrix" values="0 0 0 0 0.765625  0 0 0 0 0.109375  0 0 0 0 0.09765625  0 0 0 1 0"></feColorMatrix></filter><filter id="colorMatrixGold"><feColorMatrix in="SourceGraphic" type="matrix" values="0 0 0 0 0.734375  0 0 0 0 0.609375  0 0 0 0 0.375  0 0 0 1 0"></feColorMatrix></filter><filter id="1"><feColorMatrix in="SourceGraphic" type="matrix" values=""></feColorMatrix></filter><filter id="2"><feColorMatrix in="SourceGraphic" type="matrix" values=""></feColorMatrix></filter><filter id="3"><feColorMatrix in="SourceGraphic" type="matrix" values=""></feColorMatrix></filter><defs><clipPath id="textClip"><rect x="0" y="40" width="200" height="30"></rect><rect x="0" y="80" width="200" height="30"></rect><rect x="0" y="90" width="200" height="90"></rect></clipPath><filter id="logoIconColor" filterUnits="userSpaceOnUse" x="0" y="0" width="200" height="120"></filter><filter id="logoIconBackgroundColor" filterUnits="userSpaceOnUse" x="0" y="0" width="200" height="120"></filter></defs><g transform="translate(0,0)" class="logo-group"><g transform="translate(132.3312494719946,80)" class="logo-icon"><svg version="1.0" xmlns="http://www.w3.org/2000/svg" preserveAspectRatio="xMidYMid meet" color-interpolation-filters="sRGB" xmlns:xlink="http://www.w3.org/1999/xlink" width="105.33750105601082" height="80"><svg xmlns="http://www.w3.org/2000/svg" xmlns:xlink="http://www.w3.org/1999/xlink" viewBox="0 0 155.86 118.37"><defs><linearGradient id="aeef88cf-67f0-4c64-b4bd-02e010386a53" y1="-990.88" x2="155.86" y2="-990.88" gradientTransform="matrix(1, 0, 0, -1, 0, -931.7)" gradientUnits="userSpaceOnUse"><stop offset="0" stop-color="#0019d0"></stop><stop offset="1" stop-color="#189ece"></stop></linearGradient></defs><title>资源 31</title><g id="b6033f94-974e-4145-aa62-2062d8cd7759" data-name="图层 2"><g id="edee1c50-398c-4559-a877-1431952dd971" data-name="图层 1"><path d="M81.14,0h12.2l5,13.56H86.1ZM102,13.57h12.2L109.26,0H97.05Zm6.55,17.89h12.2l-5-13.57H103.6Zm9-17.89h12.21L124.81,0H112.6Zm23.28,17.89h12.2l-5-13.57H135.88ZM99,48.77h12.2l-5-13.57H94Zm6.39,17.48h12.2l-5-13.56h-12.2Zm15.92,0h12.2l-5-13.57H116.32Zm15.92,0h12.21l-5-13.56H132.24ZM118.34,101h12.21l-5-13.57h-12.2ZM112,83.72h12.2l-5-13.57H107ZM134.26,101h12.2l-5-13.57H129.3Zm9.4-17.32h12.2l-5-13.57H138.69Zm-19,34.63h12.2l-5-13.57H119.71ZM70.63,13.57h12.2L77.87,0H65.67Zm6.56,17.89h12.2l-5-13.56H72.21Zm6.33,17.31h12.2l-5-13.57H78.54Zm6.39,17.49H102.1l-5-13.57H84.94Zm6.46,17.48h12.2l-5-13.57H91.39Zm6.51,17.32h12.21l-5-13.57H97.91Zm6.34,17.31h12.2l-5-13.57H104.25ZM0,118.37H16.43L29.26,82.9H75.69L88,118.35H105.6L62.66,0H44.55ZM34,69.85,52.92,17.56,71.14,69.85Z" opacity="0.6" fill="url(#aeef88cf-67f0-4c64-b4bd-02e010386a53)" style="isolation:isolate"></path></g></g></svg></svg></g><g transform="translate(185,170)" class="logo-text"><path d="" fill="#333"></path></g><g transform="translate(185,180)" class="logo-slug"><path d="" fill="#333"></path></g></g></svg>