<svg width="100" height="100" xmlns="http://www.w3.org/2000/svg" color-interpolation-filters="sRGB" preserveAspectRatio="xMidYMid meet" version="1.0">
 <filter id="colorMatrixDefault"/>
 <filter id="colorMatrixWhite"/>
 <filter id="colorMatrixRed"/>
 <filter id="colorMatrixGold"/>
 <filter id="1"/>
 <filter id="2"/>
 <filter id="3"/>
 <defs>
  <clipPath id="textClip">
   <rect id="svg_7" height="30" width="200" y="40" x="0"/>
   <rect id="svg_8" height="30" width="200" y="80" x="0"/>
   <rect id="svg_9" height="90" width="200" y="90" x="0"/>
  </clipPath>
 </defs>
 <g class="logo-group">
  <g id="svg_3" class="logo-icon">
   <svg id="svg_10" y="2.007946" x="1.86343" height="80" width="89.614621" color-interpolation-filters="sRGB" preserveAspectRatio="xMidYMid meet" version="1" xmlns:xlink="http://www.w3.org/1999/xlink" xmlns="http://www.w3.org/2000/svg">
    <svg id="svg_11" viewBox="0 0 169.17 151.02" xmlns="http://www.w3.org/2000/svg">
     <title>资源 58</title>
     <g data-name="图层 2" id="svg_4">
      <g data-name="图层 1" id="svg_5">
       <path id="svg_12" fill="#90d3f1" d="m130.32,70.41c-22.1,-0.55 -94.51,39.25 -94.51,39.25s71.49,40.87 94.51,39.21c17.92,-1.3 36.6,-17.54 36.6,-39.21s-17.34,-38.78 -36.6,-39.25zm6.2,52.4a16,16 0 1 1 16,-16a16,16 0 0 1 -16,16z"/>
       <path id="svg_13" fill="#036eb8" d="m136.52,126.27a19.44,19.44 0 1 1 19.48,-19.44l0,0a19.46,19.46 0 0 1 -19.48,19.44zm0,-35.41a16,16 0 1 0 16,16a16,16 0 0 0 -16,-16z"/>
       <path id="svg_14" fill="#036eb8" d="m125,62.65c-22.49,0 -86.38,37 -95.17,42.16l-29.83,-17.48l0,4l26.4,15.48l0,0l0.11,0.07l-26.51,15.55l0,4l29.9,-17.53c1,0.61 2.81,1.64 5.14,3l1,0.55c18.8,10.75 69.45,38.55 88.96,38.55a44.19,44.19 0 0 0 0,-88.37l0,0.02zm0,84.89c-19.1,0 -72.25,-29.53 -89.12,-39.21l-2.52,-1.47l4.37,-2.64c18.58,-10.56 68.81,-38.12 87.27,-38.12a40.74,40.74 0 0 1 0,81.47l0,-0.03z"/>
       <path id="svg_15" fill="#036eb8" d="m134.21,30.6a5.86,5.86 0 1 1 5.85,-5.87l0,0a5.87,5.87 0 0 1 -5.85,5.87zm0,-10a4.13,4.13 0 1 0 4.13,4.13l0,0a4.15,4.15 0 0 0 -4.13,-4.12l0,-0.01z"/>
       <path id="svg_16" fill="#036eb8" d="m115.24,46.56a3.57,3.57 0 1 1 3.57,-3.56l0,0a3.58,3.58 0 0 1 -3.57,3.56zm0,-5.75a2.17,2.17 0 1 0 2.17,2.19l0,0a2.17,2.17 0 0 0 -2.17,-2.15l0,-0.04z"/>
       <path id="svg_17" fill="#036eb8" d="m108.83,18.59a9.3,9.3 0 1 1 9.29,-9.29l0,0a9.29,9.29 0 0 1 -9.29,9.29zm0,-16.43a7.14,7.14 0 1 0 7.17,7.14l0,0a7.14,7.14 0 0 0 -7.17,-7.14z"/>
      </g>
     </g>
    </svg>
   </svg>
  </g>
  <g id="svg_18" class="logo-text">
   <path id="svg_19" fill="#333"/>
  </g>
  <g transform="translate(-77,-47) " id="svg_20" class="logo-slug">
   <path id="svg_21" fill="#333"/>
  </g>
 </g>
 <g>
  <title>Layer 1</title>
  <rect transform="translate(-77,-47) " id="svg_22" ry="6" rx="6" fill="transparent" height="100%" width="100%" y="0" x="0"/>
  <rect transform="translate(-77,-47) " id="svg_23" fill-opacity="0.03" ry="6" rx="6" fill="url(#watermark)" height="100%" width="100%" y="0" x="0"/>
 </g>
 <g>
  <title>background</title>
  <rect transform="translate(-77,-47) " fill="none" id="canvas_background" height="102" width="102" y="-1" x="-1"/>
 </g>
</svg>