<svg data-v-7d32def8="" version="1.0" xmlns="http://www.w3.org/2000/svg" preserveAspectRatio="xMidYMid meet" color-interpolation-filters="sRGB" xmlns:xlink="http://www.w3.org/1999/xlink" viewBox="0 0 370 260" width="100%" height="100%"><rect x="0" y="0" width="100%" height="100%" fill="transparent" rx="6" ry="6"></rect><rect x="0" y="0" width="100%" height="100%" fill="url(#watermark)" rx="6" ry="6" fill-opacity=".03"></rect><filter id="colorMatrixDefault"><feColorMatrix in="SourceGraphic" type="matrix" values=" 1 0 0 0 0 0 1 0 0 0 0 0 1 0 0 0 0 0 1 0"></feColorMatrix></filter><filter id="colorMatrixWhite"><feColorMatrix in="SourceGraphic" type="matrix" values="0 0 0 0 0.99609375  0 0 0 0 0.99609375  0 0 0 0 0.99609375  0 0 0 1 0"></feColorMatrix></filter><filter id="colorMatrixRed"><feColorMatrix in="SourceGraphic" type="matrix" values="0 0 0 0 0.765625  0 0 0 0 0.109375  0 0 0 0 0.09765625  0 0 0 1 0"></feColorMatrix></filter><filter id="colorMatrixGold"><feColorMatrix in="SourceGraphic" type="matrix" values="0 0 0 0 0.734375  0 0 0 0 0.609375  0 0 0 0 0.375  0 0 0 1 0"></feColorMatrix></filter><filter id="1"><feColorMatrix in="SourceGraphic" type="matrix" values=""></feColorMatrix></filter><filter id="2"><feColorMatrix in="SourceGraphic" type="matrix" values=""></feColorMatrix></filter><filter id="3"><feColorMatrix in="SourceGraphic" type="matrix" values=""></feColorMatrix></filter><defs><clipPath id="textClip"><rect x="0" y="40" width="200" height="30"></rect><rect x="0" y="80" width="200" height="30"></rect><rect x="0" y="90" width="200" height="90"></rect></clipPath><filter id="logoIconColor" filterUnits="userSpaceOnUse" x="0" y="0" width="200" height="120"></filter><filter id="logoIconBackgroundColor" filterUnits="userSpaceOnUse" x="0" y="0" width="200" height="120"></filter></defs><g transform="translate(0,0)" class="logo-group"><g transform="translate(140.1926897099722,80)" class="logo-icon"><svg version="1.0" xmlns="http://www.w3.org/2000/svg" preserveAspectRatio="xMidYMid meet" color-interpolation-filters="sRGB" xmlns:xlink="http://www.w3.org/1999/xlink" width="89.61462058005561" height="80"><svg xmlns="http://www.w3.org/2000/svg" viewBox="0 0 169.17 151.02"><title>资源 58</title><g id="b86412ef-3d04-4814-a136-30dbe42598ae" data-name="图层 2"><g id="b22e911c-85d6-48c8-b040-821f4b0949da" data-name="图层 1"><path d="M130.32,70.41c-22.1-.55-94.51,39.25-94.51,39.25s71.49,40.87,94.51,39.21c17.92-1.3,36.6-17.54,36.6-39.21S149.58,70.88,130.32,70.41Zm6.2,52.4a16,16,0,1,1,16-16,16,16,0,0,1-16,16Z" fill="#90d3f1"></path><path d="M136.52,126.27A19.44,19.44,0,1,1,156,106.83h0A19.46,19.46,0,0,1,136.52,126.27Zm0-35.41a16,16,0,1,0,16,16A16,16,0,0,0,136.52,90.86Z" fill="#036eb8"></path><path d="M125,62.65c-22.49,0-86.38,37-95.17,42.16L0,87.33v4l26.4,15.48h0l.11.07L0,122.43v4l29.9-17.53c1,.61,2.81,1.64,5.14,3l1,.55C54.84,123.2,105.49,151,125,151a44.19,44.19,0,0,0,0-88.37Zm0,84.91c-19.1,0-72.25-29.53-89.12-39.21l-2.52-1.47,4.37-2.64C56.31,93.66,106.54,66.1,125,66.1a40.74,40.74,0,0,1,0,81.47Z" fill="#036eb8"></path><path d="M134.21,30.6a5.86,5.86,0,1,1,5.85-5.87h0A5.87,5.87,0,0,1,134.21,30.6Zm0-10a4.13,4.13,0,1,0,4.13,4.13h0A4.15,4.15,0,0,0,134.21,20.61Z" fill="#036eb8"></path><path d="M115.24,46.56A3.57,3.57,0,1,1,118.81,43h0A3.58,3.58,0,0,1,115.24,46.56Zm0-5.75A2.17,2.17,0,1,0,117.41,43h0a2.17,2.17,0,0,0-2.17-2.15Z" fill="#036eb8"></path><path d="M108.83,18.59a9.3,9.3,0,1,1,9.29-9.29h0A9.29,9.29,0,0,1,108.83,18.59Zm0-16.43A7.14,7.14,0,1,0,116,9.3h0A7.14,7.14,0,0,0,108.83,2.16Z" fill="#036eb8"></path></g></g></svg></svg></g><g transform="translate(185,170)" class="logo-text"><path d="" fill="#333"></path></g><g transform="translate(185,180)" class="logo-slug"><path d="" fill="#333"></path></g></g></svg>