<svg xmlns="http://www.w3.org/2000/svg" xmlns:xlink="http://www.w3.org/1999/xlink" id="Capa_1" x="0" y="0" version="1.1" viewBox="0 0 512 512" xml:space="preserve" style="enable-background:new 0 0 512 512"><linearGradient id="SVGID_1_" x1="338.736" x2="662.646" y1="219.692" y2="-18.328" gradientTransform="matrix(1.0039 0 0 -1.0039 0.1922 516.5606)" gradientUnits="userSpaceOnUse"><stop offset="0" style="stop-color:#b8de6f"/><stop offset="1" style="stop-color:#8aa753"/></linearGradient><path style="fill:url(#SVGID_1_)" d="M453.384,20.5l58.354,381.648c1.887,12.344-6.599,23.894-18.943,25.782l-381.648,58.354	c-12.344,1.887-23.894-6.599-25.782-18.943L27.011,85.693c-1.887-12.344,6.599-23.894,18.943-25.782L427.602,1.557	C439.946-0.33,451.496,8.156,453.384,20.5z"/><linearGradient id="SVGID_2_" x1="322.324" x2="627.274" y1="198.687" y2="-63.173" gradientTransform="matrix(1.0039 0 0 -1.0039 0.1922 516.5606)" gradientUnits="userSpaceOnUse"><stop offset="0" style="stop-color:#fe7695"/><stop offset="1" style="stop-color:#fe547b"/></linearGradient><path style="fill:url(#SVGID_2_)" d="M457.455,50.956l29.261,384.973c0.947,12.452-8.391,23.325-20.842,24.272L80.901,489.462	c-12.452,0.947-23.325-8.391-24.272-20.842L27.368,83.647c-0.947-12.452,8.391-23.325,20.842-24.272l384.973-29.261	C445.635,29.167,456.509,38.504,457.455,50.956z"/><linearGradient id="SVGID_3_" x1="304.369" x2="588.599" y1="178.973" y2="-105.257" gradientTransform="matrix(1.0039 0 0 -1.0039 0.1922 516.5606)" gradientUnits="userSpaceOnUse"><stop offset="0" style="stop-color:#67dcdc"/><stop offset="1" style="stop-color:#019394"/></linearGradient><path style="fill:url(#SVGID_3_)" d="M459.207,81.633v386.083c0,12.488-10.135,22.622-22.622,22.622H50.502	c-12.488,0-22.622-10.135-22.622-22.622V81.633c0-12.488,10.135-22.622,22.622-22.622h386.083	C449.073,59.01,459.207,69.146,459.207,81.633z"/><linearGradient id="SVGID_4_" x1="228.515" x2="228.515" y1="284.543" y2="-203.457" gradientTransform="matrix(1.0039 0 0 -1.0039 0.1922 516.5606)" gradientUnits="userSpaceOnUse"><stop offset="0" style="stop-color:#fcc344"/><stop offset="1" style="stop-color:#f7ae3d"/></linearGradient><path style="fill:url(#SVGID_4_)" d="M314.922,510.62L20.926,488.501c-12.459-0.938-21.798-11.797-20.861-24.256L29.029,79.25	c0.938-12.459,11.797-21.798,24.256-20.861l384.996,28.964c12.459,0.938,21.798,11.797,20.862,24.256L436.58,411.51	c-0.26,3.452-1.867,6.663-4.474,8.94l-94.716,82.691C331.202,508.541,323.11,511.235,314.922,510.62z"/><g><rect style="fill:#fff2eb" width="334.564" height="25.096" x="74.864" y="201.706" transform="matrix(-0.9971 -0.0756 0.0756 -0.9971 467.3999 446.2027)"/><rect style="fill:#fff2eb" width="334.564" height="25.096" x="70.035" y="265.406" transform="matrix(-0.9971 -0.0756 0.0756 -0.9971 452.9404 573.0537)"/><rect style="fill:#fff2eb" width="247.628" height="25.096" x="65.323" y="325.808" transform="matrix(-0.9971 -0.0756 0.0756 -0.9971 352.1519 690.0431)"/></g><linearGradient id="SVGID_5_" x1="184.476" x2="184.476" y1="54.443" y2="7.393" gradientTransform="matrix(1.0039 0 0 -1.0039 0.1922 516.5606)" gradientUnits="userSpaceOnUse"><stop offset="0" style="stop-color:#fcc344;stop-opacity:0"/><stop offset="1" style="stop-color:#d48000"/></linearGradient><path style="fill:url(#SVGID_5_)" d="M337.387,503.141l33.394-29.155L1.423,446.199l-1.357,18.047	c-0.908,12.063,7.835,22.638,19.703,24.138c0.382,0.048,0.769,0.087,1.159,0.116l293.995,22.118	C323.11,511.235,331.202,508.541,337.387,503.141z"/><linearGradient id="SVGID_6_" x1="356.84" x2="424.27" y1="71.395" y2="-7.005" gradientTransform="matrix(1.0039 0 0 -1.0039 0.1922 516.5606)" gradientUnits="userSpaceOnUse"><stop offset="0" style="stop-color:#fcc344"/><stop offset="1" style="stop-color:#d48000"/></linearGradient><path style="fill:url(#SVGID_6_)" d="M435.019,416.811c0,0-0.808,1.838-3.63,4.265c-1.048,0.902-93.444,81.58-93.444,81.58	c-6.542,5.711-15.1,8.559-23.76,7.908l0,0l0,0c7.475,0.562,13.991-5.042,14.553-12.517l4.978-66.171	c0.938-12.459,11.797-21.798,24.256-20.861L435.019,416.811z"/></svg>